%TF.GenerationSoftware,KiCad,Pcbnew,(5.1.12)-1*%
%TF.CreationDate,2021-11-19T01:02:39+01:00*%
%TF.ProjectId,HF_CaricoVariabile_r00,48465f43-6172-4696-936f-566172696162,rev?*%
%TF.SameCoordinates,Original*%
%TF.FileFunction,Soldermask,Top*%
%TF.FilePolarity,Negative*%
%FSLAX46Y46*%
G04 Gerber Fmt 4.6, Leading zero omitted, Abs format (unit mm)*
G04 Created by KiCad (PCBNEW (5.1.12)-1) date 2021-11-19 01:02:39*
%MOMM*%
%LPD*%
G01*
G04 APERTURE LIST*
%TA.AperFunction,Profile*%
%ADD10C,0.150000*%
%TD*%
%ADD11O,1.700000X1.700000*%
%ADD12R,1.700000X1.700000*%
%ADD13C,0.100000*%
%ADD14R,1.060000X0.650000*%
%ADD15O,1.600000X1.600000*%
%ADD16R,1.600000X1.600000*%
%ADD17R,1.800000X0.800000*%
%ADD18R,0.500000X0.500000*%
%ADD19R,4.190000X2.665000*%
%ADD20R,4.190000X1.780000*%
G04 APERTURE END LIST*
D10*
X151130000Y-160020000D02*
X65278000Y-160020000D01*
X65278000Y-65024000D02*
X65278000Y-89154000D01*
X65278000Y-89154000D02*
X61214000Y-89154000D01*
X65278000Y-130048000D02*
X60960000Y-130048000D01*
X65278000Y-140716000D02*
X60960000Y-140716000D01*
X65278000Y-140716000D02*
X65278000Y-160020000D01*
X151130000Y-65148899D02*
X65278000Y-65024000D01*
X151130000Y-160020000D02*
X151130000Y-65148899D01*
X60960000Y-130048000D02*
X60960000Y-140716000D01*
X65278000Y-99822000D02*
X65278000Y-130048000D01*
X61214000Y-99822000D02*
X65278000Y-99822000D01*
X61214000Y-89154000D02*
X61214000Y-99822000D01*
%TO.C,Rx-Zx2*%
G36*
G01*
X108035600Y-153814200D02*
X108035600Y-155964200D01*
G75*
G02*
X107785600Y-156214200I-250000J0D01*
G01*
X107035600Y-156214200D01*
G75*
G02*
X106785600Y-155964200I0J250000D01*
G01*
X106785600Y-153814200D01*
G75*
G02*
X107035600Y-153564200I250000J0D01*
G01*
X107785600Y-153564200D01*
G75*
G02*
X108035600Y-153814200I0J-250000D01*
G01*
G37*
G36*
G01*
X110835600Y-153814200D02*
X110835600Y-155964200D01*
G75*
G02*
X110585600Y-156214200I-250000J0D01*
G01*
X109835600Y-156214200D01*
G75*
G02*
X109585600Y-155964200I0J250000D01*
G01*
X109585600Y-153814200D01*
G75*
G02*
X109835600Y-153564200I250000J0D01*
G01*
X110585600Y-153564200D01*
G75*
G02*
X110835600Y-153814200I0J-250000D01*
G01*
G37*
%TD*%
D11*
%TO.C,RControl1*%
X107188000Y-69088000D03*
X104648000Y-69088000D03*
X102108000Y-69088000D03*
X99568000Y-69088000D03*
X97028000Y-69088000D03*
X94488000Y-69088000D03*
X91948000Y-69088000D03*
X89408000Y-69088000D03*
X86868000Y-69088000D03*
D12*
X84328000Y-69088000D03*
%TD*%
D13*
%TO.C,GND/GND1*%
G36*
X70370602Y-145766000D02*
G01*
X70370602Y-145741466D01*
X70375412Y-145692635D01*
X70384984Y-145644510D01*
X70399228Y-145597555D01*
X70418005Y-145552222D01*
X70441136Y-145508949D01*
X70468396Y-145468150D01*
X70499524Y-145430221D01*
X70534221Y-145395524D01*
X70572150Y-145364396D01*
X70612949Y-145337136D01*
X70656222Y-145314005D01*
X70701555Y-145295228D01*
X70748510Y-145280984D01*
X70796635Y-145271412D01*
X70845466Y-145266602D01*
X70870000Y-145266602D01*
X70870000Y-145266000D01*
X71370000Y-145266000D01*
X71370000Y-145266602D01*
X71394534Y-145266602D01*
X71443365Y-145271412D01*
X71491490Y-145280984D01*
X71538445Y-145295228D01*
X71583778Y-145314005D01*
X71627051Y-145337136D01*
X71667850Y-145364396D01*
X71705779Y-145395524D01*
X71740476Y-145430221D01*
X71771604Y-145468150D01*
X71798864Y-145508949D01*
X71821995Y-145552222D01*
X71840772Y-145597555D01*
X71855016Y-145644510D01*
X71864588Y-145692635D01*
X71869398Y-145741466D01*
X71869398Y-145766000D01*
X71870000Y-145766000D01*
X71870000Y-146266000D01*
X70370000Y-146266000D01*
X70370000Y-145766000D01*
X70370602Y-145766000D01*
G37*
G36*
X71870000Y-146566000D02*
G01*
X71870000Y-147066000D01*
X71869398Y-147066000D01*
X71869398Y-147090534D01*
X71864588Y-147139365D01*
X71855016Y-147187490D01*
X71840772Y-147234445D01*
X71821995Y-147279778D01*
X71798864Y-147323051D01*
X71771604Y-147363850D01*
X71740476Y-147401779D01*
X71705779Y-147436476D01*
X71667850Y-147467604D01*
X71627051Y-147494864D01*
X71583778Y-147517995D01*
X71538445Y-147536772D01*
X71491490Y-147551016D01*
X71443365Y-147560588D01*
X71394534Y-147565398D01*
X71370000Y-147565398D01*
X71370000Y-147566000D01*
X70870000Y-147566000D01*
X70870000Y-147565398D01*
X70845466Y-147565398D01*
X70796635Y-147560588D01*
X70748510Y-147551016D01*
X70701555Y-147536772D01*
X70656222Y-147517995D01*
X70612949Y-147494864D01*
X70572150Y-147467604D01*
X70534221Y-147436476D01*
X70499524Y-147401779D01*
X70468396Y-147363850D01*
X70441136Y-147323051D01*
X70418005Y-147279778D01*
X70399228Y-147234445D01*
X70384984Y-147187490D01*
X70375412Y-147139365D01*
X70370602Y-147090534D01*
X70370602Y-147066000D01*
X70370000Y-147066000D01*
X70370000Y-146566000D01*
X71870000Y-146566000D01*
G37*
%TD*%
%TO.C,Rx>Rref1*%
G36*
G01*
X145307000Y-140837000D02*
X145307000Y-138687000D01*
G75*
G02*
X145557000Y-138437000I250000J0D01*
G01*
X146307000Y-138437000D01*
G75*
G02*
X146557000Y-138687000I0J-250000D01*
G01*
X146557000Y-140837000D01*
G75*
G02*
X146307000Y-141087000I-250000J0D01*
G01*
X145557000Y-141087000D01*
G75*
G02*
X145307000Y-140837000I0J250000D01*
G01*
G37*
G36*
G01*
X142507000Y-140837000D02*
X142507000Y-138687000D01*
G75*
G02*
X142757000Y-138437000I250000J0D01*
G01*
X143507000Y-138437000D01*
G75*
G02*
X143757000Y-138687000I0J-250000D01*
G01*
X143757000Y-140837000D01*
G75*
G02*
X143507000Y-141087000I-250000J0D01*
G01*
X142757000Y-141087000D01*
G75*
G02*
X142507000Y-140837000I0J250000D01*
G01*
G37*
%TD*%
%TO.C,Rx<Rref1*%
G36*
G01*
X145363000Y-148649000D02*
X145363000Y-146499000D01*
G75*
G02*
X145613000Y-146249000I250000J0D01*
G01*
X146363000Y-146249000D01*
G75*
G02*
X146613000Y-146499000I0J-250000D01*
G01*
X146613000Y-148649000D01*
G75*
G02*
X146363000Y-148899000I-250000J0D01*
G01*
X145613000Y-148899000D01*
G75*
G02*
X145363000Y-148649000I0J250000D01*
G01*
G37*
G36*
G01*
X142563000Y-148649000D02*
X142563000Y-146499000D01*
G75*
G02*
X142813000Y-146249000I250000J0D01*
G01*
X143563000Y-146249000D01*
G75*
G02*
X143813000Y-146499000I0J-250000D01*
G01*
X143813000Y-148649000D01*
G75*
G02*
X143563000Y-148899000I-250000J0D01*
G01*
X142813000Y-148899000D01*
G75*
G02*
X142563000Y-148649000I0J250000D01*
G01*
G37*
%TD*%
D14*
%TO.C,U10*%
X116500000Y-98806000D03*
X116500000Y-100706000D03*
X114300000Y-100706000D03*
X114300000Y-99756000D03*
X114300000Y-98806000D03*
%TD*%
%TO.C,R65*%
G36*
G01*
X89271000Y-82386000D02*
X88021000Y-82386000D01*
G75*
G02*
X87771000Y-82136000I0J250000D01*
G01*
X87771000Y-81336000D01*
G75*
G02*
X88021000Y-81086000I250000J0D01*
G01*
X89271000Y-81086000D01*
G75*
G02*
X89521000Y-81336000I0J-250000D01*
G01*
X89521000Y-82136000D01*
G75*
G02*
X89271000Y-82386000I-250000J0D01*
G01*
G37*
G36*
G01*
X89271000Y-85486000D02*
X88021000Y-85486000D01*
G75*
G02*
X87771000Y-85236000I0J250000D01*
G01*
X87771000Y-84436000D01*
G75*
G02*
X88021000Y-84186000I250000J0D01*
G01*
X89271000Y-84186000D01*
G75*
G02*
X89521000Y-84436000I0J-250000D01*
G01*
X89521000Y-85236000D01*
G75*
G02*
X89271000Y-85486000I-250000J0D01*
G01*
G37*
%TD*%
%TO.C,R64*%
G36*
G01*
X111369000Y-99023000D02*
X110119000Y-99023000D01*
G75*
G02*
X109869000Y-98773000I0J250000D01*
G01*
X109869000Y-97973000D01*
G75*
G02*
X110119000Y-97723000I250000J0D01*
G01*
X111369000Y-97723000D01*
G75*
G02*
X111619000Y-97973000I0J-250000D01*
G01*
X111619000Y-98773000D01*
G75*
G02*
X111369000Y-99023000I-250000J0D01*
G01*
G37*
G36*
G01*
X111369000Y-102123000D02*
X110119000Y-102123000D01*
G75*
G02*
X109869000Y-101873000I0J250000D01*
G01*
X109869000Y-101073000D01*
G75*
G02*
X110119000Y-100823000I250000J0D01*
G01*
X111369000Y-100823000D01*
G75*
G02*
X111619000Y-101073000I0J-250000D01*
G01*
X111619000Y-101873000D01*
G75*
G02*
X111369000Y-102123000I-250000J0D01*
G01*
G37*
%TD*%
%TO.C,R62*%
G36*
G01*
X88021000Y-78523000D02*
X89271000Y-78523000D01*
G75*
G02*
X89521000Y-78773000I0J-250000D01*
G01*
X89521000Y-79573000D01*
G75*
G02*
X89271000Y-79823000I-250000J0D01*
G01*
X88021000Y-79823000D01*
G75*
G02*
X87771000Y-79573000I0J250000D01*
G01*
X87771000Y-78773000D01*
G75*
G02*
X88021000Y-78523000I250000J0D01*
G01*
G37*
G36*
G01*
X88021000Y-75423000D02*
X89271000Y-75423000D01*
G75*
G02*
X89521000Y-75673000I0J-250000D01*
G01*
X89521000Y-76473000D01*
G75*
G02*
X89271000Y-76723000I-250000J0D01*
G01*
X88021000Y-76723000D01*
G75*
G02*
X87771000Y-76473000I0J250000D01*
G01*
X87771000Y-75673000D01*
G75*
G02*
X88021000Y-75423000I250000J0D01*
G01*
G37*
%TD*%
D13*
%TO.C,RF1*%
G36*
X72532000Y-88912602D02*
G01*
X72556534Y-88912602D01*
X72605365Y-88917412D01*
X72653490Y-88926984D01*
X72700445Y-88941228D01*
X72745778Y-88960005D01*
X72789051Y-88983136D01*
X72829850Y-89010396D01*
X72867779Y-89041524D01*
X72902476Y-89076221D01*
X72933604Y-89114150D01*
X72960864Y-89154949D01*
X72983995Y-89198222D01*
X73002772Y-89243555D01*
X73017016Y-89290510D01*
X73026588Y-89338635D01*
X73031398Y-89387466D01*
X73031398Y-89412000D01*
X73032000Y-89412000D01*
X73032000Y-89912000D01*
X73031398Y-89912000D01*
X73031398Y-89936534D01*
X73026588Y-89985365D01*
X73017016Y-90033490D01*
X73002772Y-90080445D01*
X72983995Y-90125778D01*
X72960864Y-90169051D01*
X72933604Y-90209850D01*
X72902476Y-90247779D01*
X72867779Y-90282476D01*
X72829850Y-90313604D01*
X72789051Y-90340864D01*
X72745778Y-90363995D01*
X72700445Y-90382772D01*
X72653490Y-90397016D01*
X72605365Y-90406588D01*
X72556534Y-90411398D01*
X72532000Y-90411398D01*
X72532000Y-90412000D01*
X72032000Y-90412000D01*
X72032000Y-88912000D01*
X72532000Y-88912000D01*
X72532000Y-88912602D01*
G37*
G36*
X71732000Y-90412000D02*
G01*
X71232000Y-90412000D01*
X71232000Y-90411398D01*
X71207466Y-90411398D01*
X71158635Y-90406588D01*
X71110510Y-90397016D01*
X71063555Y-90382772D01*
X71018222Y-90363995D01*
X70974949Y-90340864D01*
X70934150Y-90313604D01*
X70896221Y-90282476D01*
X70861524Y-90247779D01*
X70830396Y-90209850D01*
X70803136Y-90169051D01*
X70780005Y-90125778D01*
X70761228Y-90080445D01*
X70746984Y-90033490D01*
X70737412Y-89985365D01*
X70732602Y-89936534D01*
X70732602Y-89912000D01*
X70732000Y-89912000D01*
X70732000Y-89412000D01*
X70732602Y-89412000D01*
X70732602Y-89387466D01*
X70737412Y-89338635D01*
X70746984Y-89290510D01*
X70761228Y-89243555D01*
X70780005Y-89198222D01*
X70803136Y-89154949D01*
X70830396Y-89114150D01*
X70861524Y-89076221D01*
X70896221Y-89041524D01*
X70934150Y-89010396D01*
X70974949Y-88983136D01*
X71018222Y-88960005D01*
X71063555Y-88941228D01*
X71110510Y-88926984D01*
X71158635Y-88917412D01*
X71207466Y-88912602D01*
X71232000Y-88912602D01*
X71232000Y-88912000D01*
X71732000Y-88912000D01*
X71732000Y-90412000D01*
G37*
%TD*%
D15*
%TO.C,D15*%
X99568000Y-93472000D03*
D16*
X107188000Y-93472000D03*
%TD*%
%TO.C,D14*%
G36*
G01*
X102479000Y-92847000D02*
X102479000Y-94097000D01*
G75*
G02*
X102229000Y-94347000I-250000J0D01*
G01*
X101479000Y-94347000D01*
G75*
G02*
X101229000Y-94097000I0J250000D01*
G01*
X101229000Y-92847000D01*
G75*
G02*
X101479000Y-92597000I250000J0D01*
G01*
X102229000Y-92597000D01*
G75*
G02*
X102479000Y-92847000I0J-250000D01*
G01*
G37*
G36*
G01*
X105279000Y-92847000D02*
X105279000Y-94097000D01*
G75*
G02*
X105029000Y-94347000I-250000J0D01*
G01*
X104279000Y-94347000D01*
G75*
G02*
X104029000Y-94097000I0J250000D01*
G01*
X104029000Y-92847000D01*
G75*
G02*
X104279000Y-92597000I250000J0D01*
G01*
X105029000Y-92597000D01*
G75*
G02*
X105279000Y-92847000I0J-250000D01*
G01*
G37*
%TD*%
%TO.C,D13*%
G36*
G01*
X92065000Y-92847000D02*
X92065000Y-94097000D01*
G75*
G02*
X91815000Y-94347000I-250000J0D01*
G01*
X91065000Y-94347000D01*
G75*
G02*
X90815000Y-94097000I0J250000D01*
G01*
X90815000Y-92847000D01*
G75*
G02*
X91065000Y-92597000I250000J0D01*
G01*
X91815000Y-92597000D01*
G75*
G02*
X92065000Y-92847000I0J-250000D01*
G01*
G37*
G36*
G01*
X94865000Y-92847000D02*
X94865000Y-94097000D01*
G75*
G02*
X94615000Y-94347000I-250000J0D01*
G01*
X93865000Y-94347000D01*
G75*
G02*
X93615000Y-94097000I0J250000D01*
G01*
X93615000Y-92847000D01*
G75*
G02*
X93865000Y-92597000I250000J0D01*
G01*
X94615000Y-92597000D01*
G75*
G02*
X94865000Y-92847000I0J-250000D01*
G01*
G37*
%TD*%
D15*
%TO.C,D12*%
X88646000Y-93472000D03*
D16*
X96266000Y-93472000D03*
%TD*%
%TO.C,C16*%
G36*
G01*
X87951999Y-89738500D02*
X90102001Y-89738500D01*
G75*
G02*
X90352000Y-89988499I0J-249999D01*
G01*
X90352000Y-90613501D01*
G75*
G02*
X90102001Y-90863500I-249999J0D01*
G01*
X87951999Y-90863500D01*
G75*
G02*
X87702000Y-90613501I0J249999D01*
G01*
X87702000Y-89988499D01*
G75*
G02*
X87951999Y-89738500I249999J0D01*
G01*
G37*
G36*
G01*
X87951999Y-86813500D02*
X90102001Y-86813500D01*
G75*
G02*
X90352000Y-87063499I0J-249999D01*
G01*
X90352000Y-87688501D01*
G75*
G02*
X90102001Y-87938500I-249999J0D01*
G01*
X87951999Y-87938500D01*
G75*
G02*
X87702000Y-87688501I0J249999D01*
G01*
X87702000Y-87063499D01*
G75*
G02*
X87951999Y-86813500I249999J0D01*
G01*
G37*
%TD*%
%TO.C,Rx-Zx1*%
G36*
G01*
X145431000Y-134679000D02*
X145431000Y-132529000D01*
G75*
G02*
X145681000Y-132279000I250000J0D01*
G01*
X146431000Y-132279000D01*
G75*
G02*
X146681000Y-132529000I0J-250000D01*
G01*
X146681000Y-134679000D01*
G75*
G02*
X146431000Y-134929000I-250000J0D01*
G01*
X145681000Y-134929000D01*
G75*
G02*
X145431000Y-134679000I0J250000D01*
G01*
G37*
G36*
G01*
X142631000Y-134679000D02*
X142631000Y-132529000D01*
G75*
G02*
X142881000Y-132279000I250000J0D01*
G01*
X143631000Y-132279000D01*
G75*
G02*
X143881000Y-132529000I0J-250000D01*
G01*
X143881000Y-134679000D01*
G75*
G02*
X143631000Y-134929000I-250000J0D01*
G01*
X142881000Y-134929000D01*
G75*
G02*
X142631000Y-134679000I0J250000D01*
G01*
G37*
%TD*%
D11*
%TO.C,Mode1*%
X71882000Y-77216000D03*
X71882000Y-79756000D03*
X71882000Y-82296000D03*
D12*
X71882000Y-84836000D03*
%TD*%
D17*
%TO.C,CC/RF1*%
X84526000Y-120894000D03*
X84526000Y-117694000D03*
X84526000Y-115494000D03*
X84526000Y-113294000D03*
X77526000Y-113294000D03*
X77526000Y-115494000D03*
X77526000Y-117694000D03*
X77526000Y-120894000D03*
%TD*%
%TO.C,Load/WB2*%
G36*
G01*
X145555000Y-78037000D02*
X145555000Y-75887000D01*
G75*
G02*
X145805000Y-75637000I250000J0D01*
G01*
X146555000Y-75637000D01*
G75*
G02*
X146805000Y-75887000I0J-250000D01*
G01*
X146805000Y-78037000D01*
G75*
G02*
X146555000Y-78287000I-250000J0D01*
G01*
X145805000Y-78287000D01*
G75*
G02*
X145555000Y-78037000I0J250000D01*
G01*
G37*
G36*
G01*
X142755000Y-78037000D02*
X142755000Y-75887000D01*
G75*
G02*
X143005000Y-75637000I250000J0D01*
G01*
X143755000Y-75637000D01*
G75*
G02*
X144005000Y-75887000I0J-250000D01*
G01*
X144005000Y-78037000D01*
G75*
G02*
X143755000Y-78287000I-250000J0D01*
G01*
X143005000Y-78287000D01*
G75*
G02*
X142755000Y-78037000I0J250000D01*
G01*
G37*
%TD*%
%TO.C,D11*%
G36*
G01*
X92319000Y-139202000D02*
X92319000Y-140452000D01*
G75*
G02*
X92069000Y-140702000I-250000J0D01*
G01*
X91319000Y-140702000D01*
G75*
G02*
X91069000Y-140452000I0J250000D01*
G01*
X91069000Y-139202000D01*
G75*
G02*
X91319000Y-138952000I250000J0D01*
G01*
X92069000Y-138952000D01*
G75*
G02*
X92319000Y-139202000I0J-250000D01*
G01*
G37*
G36*
G01*
X95119000Y-139202000D02*
X95119000Y-140452000D01*
G75*
G02*
X94869000Y-140702000I-250000J0D01*
G01*
X94119000Y-140702000D01*
G75*
G02*
X93869000Y-140452000I0J250000D01*
G01*
X93869000Y-139202000D01*
G75*
G02*
X94119000Y-138952000I250000J0D01*
G01*
X94869000Y-138952000D01*
G75*
G02*
X95119000Y-139202000I0J-250000D01*
G01*
G37*
%TD*%
%TO.C,D10*%
G36*
G01*
X97396000Y-134757000D02*
X97396000Y-136007000D01*
G75*
G02*
X97146000Y-136257000I-250000J0D01*
G01*
X96396000Y-136257000D01*
G75*
G02*
X96146000Y-136007000I0J250000D01*
G01*
X96146000Y-134757000D01*
G75*
G02*
X96396000Y-134507000I250000J0D01*
G01*
X97146000Y-134507000D01*
G75*
G02*
X97396000Y-134757000I0J-250000D01*
G01*
G37*
G36*
G01*
X100196000Y-134757000D02*
X100196000Y-136007000D01*
G75*
G02*
X99946000Y-136257000I-250000J0D01*
G01*
X99196000Y-136257000D01*
G75*
G02*
X98946000Y-136007000I0J250000D01*
G01*
X98946000Y-134757000D01*
G75*
G02*
X99196000Y-134507000I250000J0D01*
G01*
X99946000Y-134507000D01*
G75*
G02*
X100196000Y-134757000I0J-250000D01*
G01*
G37*
%TD*%
%TO.C,D9*%
G36*
G01*
X81518000Y-139202000D02*
X81518000Y-140452000D01*
G75*
G02*
X81268000Y-140702000I-250000J0D01*
G01*
X80518000Y-140702000D01*
G75*
G02*
X80268000Y-140452000I0J250000D01*
G01*
X80268000Y-139202000D01*
G75*
G02*
X80518000Y-138952000I250000J0D01*
G01*
X81268000Y-138952000D01*
G75*
G02*
X81518000Y-139202000I0J-250000D01*
G01*
G37*
G36*
G01*
X84318000Y-139202000D02*
X84318000Y-140452000D01*
G75*
G02*
X84068000Y-140702000I-250000J0D01*
G01*
X83318000Y-140702000D01*
G75*
G02*
X83068000Y-140452000I0J250000D01*
G01*
X83068000Y-139202000D01*
G75*
G02*
X83318000Y-138952000I250000J0D01*
G01*
X84068000Y-138952000D01*
G75*
G02*
X84318000Y-139202000I0J-250000D01*
G01*
G37*
%TD*%
%TO.C,D8*%
G36*
G01*
X86601000Y-134757000D02*
X86601000Y-136007000D01*
G75*
G02*
X86351000Y-136257000I-250000J0D01*
G01*
X85601000Y-136257000D01*
G75*
G02*
X85351000Y-136007000I0J250000D01*
G01*
X85351000Y-134757000D01*
G75*
G02*
X85601000Y-134507000I250000J0D01*
G01*
X86351000Y-134507000D01*
G75*
G02*
X86601000Y-134757000I0J-250000D01*
G01*
G37*
G36*
G01*
X89401000Y-134757000D02*
X89401000Y-136007000D01*
G75*
G02*
X89151000Y-136257000I-250000J0D01*
G01*
X88401000Y-136257000D01*
G75*
G02*
X88151000Y-136007000I0J250000D01*
G01*
X88151000Y-134757000D01*
G75*
G02*
X88401000Y-134507000I250000J0D01*
G01*
X89151000Y-134507000D01*
G75*
G02*
X89401000Y-134757000I0J-250000D01*
G01*
G37*
%TD*%
%TO.C,80R1*%
G36*
G01*
X145679000Y-106231000D02*
X145679000Y-104081000D01*
G75*
G02*
X145929000Y-103831000I250000J0D01*
G01*
X146679000Y-103831000D01*
G75*
G02*
X146929000Y-104081000I0J-250000D01*
G01*
X146929000Y-106231000D01*
G75*
G02*
X146679000Y-106481000I-250000J0D01*
G01*
X145929000Y-106481000D01*
G75*
G02*
X145679000Y-106231000I0J250000D01*
G01*
G37*
G36*
G01*
X142879000Y-106231000D02*
X142879000Y-104081000D01*
G75*
G02*
X143129000Y-103831000I250000J0D01*
G01*
X143879000Y-103831000D01*
G75*
G02*
X144129000Y-104081000I0J-250000D01*
G01*
X144129000Y-106231000D01*
G75*
G02*
X143879000Y-106481000I-250000J0D01*
G01*
X143129000Y-106481000D01*
G75*
G02*
X142879000Y-106231000I0J250000D01*
G01*
G37*
%TD*%
%TO.C,640R1*%
G36*
G01*
X145425000Y-122233000D02*
X145425000Y-120083000D01*
G75*
G02*
X145675000Y-119833000I250000J0D01*
G01*
X146425000Y-119833000D01*
G75*
G02*
X146675000Y-120083000I0J-250000D01*
G01*
X146675000Y-122233000D01*
G75*
G02*
X146425000Y-122483000I-250000J0D01*
G01*
X145675000Y-122483000D01*
G75*
G02*
X145425000Y-122233000I0J250000D01*
G01*
G37*
G36*
G01*
X142625000Y-122233000D02*
X142625000Y-120083000D01*
G75*
G02*
X142875000Y-119833000I250000J0D01*
G01*
X143625000Y-119833000D01*
G75*
G02*
X143875000Y-120083000I0J-250000D01*
G01*
X143875000Y-122233000D01*
G75*
G02*
X143625000Y-122483000I-250000J0D01*
G01*
X142875000Y-122483000D01*
G75*
G02*
X142625000Y-122233000I0J250000D01*
G01*
G37*
%TD*%
%TO.C,5R1*%
G36*
G01*
X145679000Y-84895000D02*
X145679000Y-82745000D01*
G75*
G02*
X145929000Y-82495000I250000J0D01*
G01*
X146679000Y-82495000D01*
G75*
G02*
X146929000Y-82745000I0J-250000D01*
G01*
X146929000Y-84895000D01*
G75*
G02*
X146679000Y-85145000I-250000J0D01*
G01*
X145929000Y-85145000D01*
G75*
G02*
X145679000Y-84895000I0J250000D01*
G01*
G37*
G36*
G01*
X142879000Y-84895000D02*
X142879000Y-82745000D01*
G75*
G02*
X143129000Y-82495000I250000J0D01*
G01*
X143879000Y-82495000D01*
G75*
G02*
X144129000Y-82745000I0J-250000D01*
G01*
X144129000Y-84895000D01*
G75*
G02*
X143879000Y-85145000I-250000J0D01*
G01*
X143129000Y-85145000D01*
G75*
G02*
X142879000Y-84895000I0J250000D01*
G01*
G37*
%TD*%
%TO.C,40R1*%
G36*
G01*
X145685000Y-100897000D02*
X145685000Y-98747000D01*
G75*
G02*
X145935000Y-98497000I250000J0D01*
G01*
X146685000Y-98497000D01*
G75*
G02*
X146935000Y-98747000I0J-250000D01*
G01*
X146935000Y-100897000D01*
G75*
G02*
X146685000Y-101147000I-250000J0D01*
G01*
X145935000Y-101147000D01*
G75*
G02*
X145685000Y-100897000I0J250000D01*
G01*
G37*
G36*
G01*
X142885000Y-100897000D02*
X142885000Y-98747000D01*
G75*
G02*
X143135000Y-98497000I250000J0D01*
G01*
X143885000Y-98497000D01*
G75*
G02*
X144135000Y-98747000I0J-250000D01*
G01*
X144135000Y-100897000D01*
G75*
G02*
X143885000Y-101147000I-250000J0D01*
G01*
X143135000Y-101147000D01*
G75*
G02*
X142885000Y-100897000I0J250000D01*
G01*
G37*
%TD*%
%TO.C,320R1*%
G36*
G01*
X145679000Y-116899000D02*
X145679000Y-114749000D01*
G75*
G02*
X145929000Y-114499000I250000J0D01*
G01*
X146679000Y-114499000D01*
G75*
G02*
X146929000Y-114749000I0J-250000D01*
G01*
X146929000Y-116899000D01*
G75*
G02*
X146679000Y-117149000I-250000J0D01*
G01*
X145929000Y-117149000D01*
G75*
G02*
X145679000Y-116899000I0J250000D01*
G01*
G37*
G36*
G01*
X142879000Y-116899000D02*
X142879000Y-114749000D01*
G75*
G02*
X143129000Y-114499000I250000J0D01*
G01*
X143879000Y-114499000D01*
G75*
G02*
X144129000Y-114749000I0J-250000D01*
G01*
X144129000Y-116899000D01*
G75*
G02*
X143879000Y-117149000I-250000J0D01*
G01*
X143129000Y-117149000D01*
G75*
G02*
X142879000Y-116899000I0J250000D01*
G01*
G37*
%TD*%
%TO.C,20R1*%
G36*
G01*
X145555000Y-95563000D02*
X145555000Y-93413000D01*
G75*
G02*
X145805000Y-93163000I250000J0D01*
G01*
X146555000Y-93163000D01*
G75*
G02*
X146805000Y-93413000I0J-250000D01*
G01*
X146805000Y-95563000D01*
G75*
G02*
X146555000Y-95813000I-250000J0D01*
G01*
X145805000Y-95813000D01*
G75*
G02*
X145555000Y-95563000I0J250000D01*
G01*
G37*
G36*
G01*
X142755000Y-95563000D02*
X142755000Y-93413000D01*
G75*
G02*
X143005000Y-93163000I250000J0D01*
G01*
X143755000Y-93163000D01*
G75*
G02*
X144005000Y-93413000I0J-250000D01*
G01*
X144005000Y-95563000D01*
G75*
G02*
X143755000Y-95813000I-250000J0D01*
G01*
X143005000Y-95813000D01*
G75*
G02*
X142755000Y-95563000I0J250000D01*
G01*
G37*
%TD*%
%TO.C,160R1*%
G36*
G01*
X145679000Y-111565000D02*
X145679000Y-109415000D01*
G75*
G02*
X145929000Y-109165000I250000J0D01*
G01*
X146679000Y-109165000D01*
G75*
G02*
X146929000Y-109415000I0J-250000D01*
G01*
X146929000Y-111565000D01*
G75*
G02*
X146679000Y-111815000I-250000J0D01*
G01*
X145929000Y-111815000D01*
G75*
G02*
X145679000Y-111565000I0J250000D01*
G01*
G37*
G36*
G01*
X142879000Y-111565000D02*
X142879000Y-109415000D01*
G75*
G02*
X143129000Y-109165000I250000J0D01*
G01*
X143879000Y-109165000D01*
G75*
G02*
X144129000Y-109415000I0J-250000D01*
G01*
X144129000Y-111565000D01*
G75*
G02*
X143879000Y-111815000I-250000J0D01*
G01*
X143129000Y-111815000D01*
G75*
G02*
X142879000Y-111565000I0J250000D01*
G01*
G37*
%TD*%
%TO.C,1280R1*%
G36*
G01*
X145425000Y-127567000D02*
X145425000Y-125417000D01*
G75*
G02*
X145675000Y-125167000I250000J0D01*
G01*
X146425000Y-125167000D01*
G75*
G02*
X146675000Y-125417000I0J-250000D01*
G01*
X146675000Y-127567000D01*
G75*
G02*
X146425000Y-127817000I-250000J0D01*
G01*
X145675000Y-127817000D01*
G75*
G02*
X145425000Y-127567000I0J250000D01*
G01*
G37*
G36*
G01*
X142625000Y-127567000D02*
X142625000Y-125417000D01*
G75*
G02*
X142875000Y-125167000I250000J0D01*
G01*
X143625000Y-125167000D01*
G75*
G02*
X143875000Y-125417000I0J-250000D01*
G01*
X143875000Y-127567000D01*
G75*
G02*
X143625000Y-127817000I-250000J0D01*
G01*
X142875000Y-127817000D01*
G75*
G02*
X142625000Y-127567000I0J250000D01*
G01*
G37*
%TD*%
%TO.C,10R1*%
G36*
G01*
X145679000Y-90229000D02*
X145679000Y-88079000D01*
G75*
G02*
X145929000Y-87829000I250000J0D01*
G01*
X146679000Y-87829000D01*
G75*
G02*
X146929000Y-88079000I0J-250000D01*
G01*
X146929000Y-90229000D01*
G75*
G02*
X146679000Y-90479000I-250000J0D01*
G01*
X145929000Y-90479000D01*
G75*
G02*
X145679000Y-90229000I0J250000D01*
G01*
G37*
G36*
G01*
X142879000Y-90229000D02*
X142879000Y-88079000D01*
G75*
G02*
X143129000Y-87829000I250000J0D01*
G01*
X143879000Y-87829000D01*
G75*
G02*
X144129000Y-88079000I0J-250000D01*
G01*
X144129000Y-90229000D01*
G75*
G02*
X143879000Y-90479000I-250000J0D01*
G01*
X143129000Y-90479000D01*
G75*
G02*
X142879000Y-90229000I0J250000D01*
G01*
G37*
%TD*%
D11*
%TO.C,WB-Comparator1*%
X113792000Y-154940000D03*
X116332000Y-154940000D03*
X118872000Y-154940000D03*
D12*
X121412000Y-154940000D03*
%TD*%
%TO.C,U8*%
G36*
G01*
X134090000Y-148313000D02*
X134090000Y-148613000D01*
G75*
G02*
X133940000Y-148763000I-150000J0D01*
G01*
X132590000Y-148763000D01*
G75*
G02*
X132440000Y-148613000I0J150000D01*
G01*
X132440000Y-148313000D01*
G75*
G02*
X132590000Y-148163000I150000J0D01*
G01*
X133940000Y-148163000D01*
G75*
G02*
X134090000Y-148313000I0J-150000D01*
G01*
G37*
G36*
G01*
X134090000Y-147043000D02*
X134090000Y-147343000D01*
G75*
G02*
X133940000Y-147493000I-150000J0D01*
G01*
X132590000Y-147493000D01*
G75*
G02*
X132440000Y-147343000I0J150000D01*
G01*
X132440000Y-147043000D01*
G75*
G02*
X132590000Y-146893000I150000J0D01*
G01*
X133940000Y-146893000D01*
G75*
G02*
X134090000Y-147043000I0J-150000D01*
G01*
G37*
G36*
G01*
X134090000Y-145773000D02*
X134090000Y-146073000D01*
G75*
G02*
X133940000Y-146223000I-150000J0D01*
G01*
X132590000Y-146223000D01*
G75*
G02*
X132440000Y-146073000I0J150000D01*
G01*
X132440000Y-145773000D01*
G75*
G02*
X132590000Y-145623000I150000J0D01*
G01*
X133940000Y-145623000D01*
G75*
G02*
X134090000Y-145773000I0J-150000D01*
G01*
G37*
G36*
G01*
X134090000Y-144503000D02*
X134090000Y-144803000D01*
G75*
G02*
X133940000Y-144953000I-150000J0D01*
G01*
X132590000Y-144953000D01*
G75*
G02*
X132440000Y-144803000I0J150000D01*
G01*
X132440000Y-144503000D01*
G75*
G02*
X132590000Y-144353000I150000J0D01*
G01*
X133940000Y-144353000D01*
G75*
G02*
X134090000Y-144503000I0J-150000D01*
G01*
G37*
G36*
G01*
X139340000Y-144503000D02*
X139340000Y-144803000D01*
G75*
G02*
X139190000Y-144953000I-150000J0D01*
G01*
X137840000Y-144953000D01*
G75*
G02*
X137690000Y-144803000I0J150000D01*
G01*
X137690000Y-144503000D01*
G75*
G02*
X137840000Y-144353000I150000J0D01*
G01*
X139190000Y-144353000D01*
G75*
G02*
X139340000Y-144503000I0J-150000D01*
G01*
G37*
G36*
G01*
X139340000Y-145773000D02*
X139340000Y-146073000D01*
G75*
G02*
X139190000Y-146223000I-150000J0D01*
G01*
X137840000Y-146223000D01*
G75*
G02*
X137690000Y-146073000I0J150000D01*
G01*
X137690000Y-145773000D01*
G75*
G02*
X137840000Y-145623000I150000J0D01*
G01*
X139190000Y-145623000D01*
G75*
G02*
X139340000Y-145773000I0J-150000D01*
G01*
G37*
G36*
G01*
X139340000Y-147043000D02*
X139340000Y-147343000D01*
G75*
G02*
X139190000Y-147493000I-150000J0D01*
G01*
X137840000Y-147493000D01*
G75*
G02*
X137690000Y-147343000I0J150000D01*
G01*
X137690000Y-147043000D01*
G75*
G02*
X137840000Y-146893000I150000J0D01*
G01*
X139190000Y-146893000D01*
G75*
G02*
X139340000Y-147043000I0J-150000D01*
G01*
G37*
G36*
G01*
X139340000Y-148313000D02*
X139340000Y-148613000D01*
G75*
G02*
X139190000Y-148763000I-150000J0D01*
G01*
X137840000Y-148763000D01*
G75*
G02*
X137690000Y-148613000I0J150000D01*
G01*
X137690000Y-148313000D01*
G75*
G02*
X137840000Y-148163000I150000J0D01*
G01*
X139190000Y-148163000D01*
G75*
G02*
X139340000Y-148313000I0J-150000D01*
G01*
G37*
%TD*%
%TO.C,U6*%
G36*
G01*
X120246000Y-145395000D02*
X120546000Y-145395000D01*
G75*
G02*
X120696000Y-145545000I0J-150000D01*
G01*
X120696000Y-146895000D01*
G75*
G02*
X120546000Y-147045000I-150000J0D01*
G01*
X120246000Y-147045000D01*
G75*
G02*
X120096000Y-146895000I0J150000D01*
G01*
X120096000Y-145545000D01*
G75*
G02*
X120246000Y-145395000I150000J0D01*
G01*
G37*
G36*
G01*
X118976000Y-145395000D02*
X119276000Y-145395000D01*
G75*
G02*
X119426000Y-145545000I0J-150000D01*
G01*
X119426000Y-146895000D01*
G75*
G02*
X119276000Y-147045000I-150000J0D01*
G01*
X118976000Y-147045000D01*
G75*
G02*
X118826000Y-146895000I0J150000D01*
G01*
X118826000Y-145545000D01*
G75*
G02*
X118976000Y-145395000I150000J0D01*
G01*
G37*
G36*
G01*
X117706000Y-145395000D02*
X118006000Y-145395000D01*
G75*
G02*
X118156000Y-145545000I0J-150000D01*
G01*
X118156000Y-146895000D01*
G75*
G02*
X118006000Y-147045000I-150000J0D01*
G01*
X117706000Y-147045000D01*
G75*
G02*
X117556000Y-146895000I0J150000D01*
G01*
X117556000Y-145545000D01*
G75*
G02*
X117706000Y-145395000I150000J0D01*
G01*
G37*
G36*
G01*
X116436000Y-145395000D02*
X116736000Y-145395000D01*
G75*
G02*
X116886000Y-145545000I0J-150000D01*
G01*
X116886000Y-146895000D01*
G75*
G02*
X116736000Y-147045000I-150000J0D01*
G01*
X116436000Y-147045000D01*
G75*
G02*
X116286000Y-146895000I0J150000D01*
G01*
X116286000Y-145545000D01*
G75*
G02*
X116436000Y-145395000I150000J0D01*
G01*
G37*
G36*
G01*
X116436000Y-140145000D02*
X116736000Y-140145000D01*
G75*
G02*
X116886000Y-140295000I0J-150000D01*
G01*
X116886000Y-141645000D01*
G75*
G02*
X116736000Y-141795000I-150000J0D01*
G01*
X116436000Y-141795000D01*
G75*
G02*
X116286000Y-141645000I0J150000D01*
G01*
X116286000Y-140295000D01*
G75*
G02*
X116436000Y-140145000I150000J0D01*
G01*
G37*
G36*
G01*
X117706000Y-140145000D02*
X118006000Y-140145000D01*
G75*
G02*
X118156000Y-140295000I0J-150000D01*
G01*
X118156000Y-141645000D01*
G75*
G02*
X118006000Y-141795000I-150000J0D01*
G01*
X117706000Y-141795000D01*
G75*
G02*
X117556000Y-141645000I0J150000D01*
G01*
X117556000Y-140295000D01*
G75*
G02*
X117706000Y-140145000I150000J0D01*
G01*
G37*
G36*
G01*
X118976000Y-140145000D02*
X119276000Y-140145000D01*
G75*
G02*
X119426000Y-140295000I0J-150000D01*
G01*
X119426000Y-141645000D01*
G75*
G02*
X119276000Y-141795000I-150000J0D01*
G01*
X118976000Y-141795000D01*
G75*
G02*
X118826000Y-141645000I0J150000D01*
G01*
X118826000Y-140295000D01*
G75*
G02*
X118976000Y-140145000I150000J0D01*
G01*
G37*
G36*
G01*
X120246000Y-140145000D02*
X120546000Y-140145000D01*
G75*
G02*
X120696000Y-140295000I0J-150000D01*
G01*
X120696000Y-141645000D01*
G75*
G02*
X120546000Y-141795000I-150000J0D01*
G01*
X120246000Y-141795000D01*
G75*
G02*
X120096000Y-141645000I0J150000D01*
G01*
X120096000Y-140295000D01*
G75*
G02*
X120246000Y-140145000I150000J0D01*
G01*
G37*
%TD*%
%TO.C,D6*%
G36*
G01*
X132078999Y-140299000D02*
X134979001Y-140299000D01*
G75*
G02*
X135229000Y-140548999I0J-249999D01*
G01*
X135229000Y-141174001D01*
G75*
G02*
X134979001Y-141424000I-249999J0D01*
G01*
X132078999Y-141424000D01*
G75*
G02*
X131829000Y-141174001I0J249999D01*
G01*
X131829000Y-140548999D01*
G75*
G02*
X132078999Y-140299000I249999J0D01*
G01*
G37*
G36*
G01*
X132078999Y-136024000D02*
X134979001Y-136024000D01*
G75*
G02*
X135229000Y-136273999I0J-249999D01*
G01*
X135229000Y-136899001D01*
G75*
G02*
X134979001Y-137149000I-249999J0D01*
G01*
X132078999Y-137149000D01*
G75*
G02*
X131829000Y-136899001I0J249999D01*
G01*
X131829000Y-136273999D01*
G75*
G02*
X132078999Y-136024000I249999J0D01*
G01*
G37*
%TD*%
%TO.C,D5*%
G36*
G01*
X126565999Y-140299000D02*
X129466001Y-140299000D01*
G75*
G02*
X129716000Y-140548999I0J-249999D01*
G01*
X129716000Y-141174001D01*
G75*
G02*
X129466001Y-141424000I-249999J0D01*
G01*
X126565999Y-141424000D01*
G75*
G02*
X126316000Y-141174001I0J249999D01*
G01*
X126316000Y-140548999D01*
G75*
G02*
X126565999Y-140299000I249999J0D01*
G01*
G37*
G36*
G01*
X126565999Y-136024000D02*
X129466001Y-136024000D01*
G75*
G02*
X129716000Y-136273999I0J-249999D01*
G01*
X129716000Y-136899001D01*
G75*
G02*
X129466001Y-137149000I-249999J0D01*
G01*
X126565999Y-137149000D01*
G75*
G02*
X126316000Y-136899001I0J249999D01*
G01*
X126316000Y-136273999D01*
G75*
G02*
X126565999Y-136024000I249999J0D01*
G01*
G37*
%TD*%
D11*
%TO.C,RF-WB-CCLevel1*%
X130302000Y-154940000D03*
X132842000Y-154940000D03*
X135382000Y-154940000D03*
D12*
X137922000Y-154940000D03*
%TD*%
D13*
%TO.C,Ref.1*%
G36*
X79870398Y-126253000D02*
G01*
X79870398Y-126277534D01*
X79865588Y-126326365D01*
X79856016Y-126374490D01*
X79841772Y-126421445D01*
X79822995Y-126466778D01*
X79799864Y-126510051D01*
X79772604Y-126550850D01*
X79741476Y-126588779D01*
X79706779Y-126623476D01*
X79668850Y-126654604D01*
X79628051Y-126681864D01*
X79584778Y-126704995D01*
X79539445Y-126723772D01*
X79492490Y-126738016D01*
X79444365Y-126747588D01*
X79395534Y-126752398D01*
X79371000Y-126752398D01*
X79371000Y-126753000D01*
X78871000Y-126753000D01*
X78871000Y-126752398D01*
X78846466Y-126752398D01*
X78797635Y-126747588D01*
X78749510Y-126738016D01*
X78702555Y-126723772D01*
X78657222Y-126704995D01*
X78613949Y-126681864D01*
X78573150Y-126654604D01*
X78535221Y-126623476D01*
X78500524Y-126588779D01*
X78469396Y-126550850D01*
X78442136Y-126510051D01*
X78419005Y-126466778D01*
X78400228Y-126421445D01*
X78385984Y-126374490D01*
X78376412Y-126326365D01*
X78371602Y-126277534D01*
X78371602Y-126253000D01*
X78371000Y-126253000D01*
X78371000Y-125753000D01*
X79871000Y-125753000D01*
X79871000Y-126253000D01*
X79870398Y-126253000D01*
G37*
G36*
X78371000Y-125453000D02*
G01*
X78371000Y-124953000D01*
X78371602Y-124953000D01*
X78371602Y-124928466D01*
X78376412Y-124879635D01*
X78385984Y-124831510D01*
X78400228Y-124784555D01*
X78419005Y-124739222D01*
X78442136Y-124695949D01*
X78469396Y-124655150D01*
X78500524Y-124617221D01*
X78535221Y-124582524D01*
X78573150Y-124551396D01*
X78613949Y-124524136D01*
X78657222Y-124501005D01*
X78702555Y-124482228D01*
X78749510Y-124467984D01*
X78797635Y-124458412D01*
X78846466Y-124453602D01*
X78871000Y-124453602D01*
X78871000Y-124453000D01*
X79371000Y-124453000D01*
X79371000Y-124453602D01*
X79395534Y-124453602D01*
X79444365Y-124458412D01*
X79492490Y-124467984D01*
X79539445Y-124482228D01*
X79584778Y-124501005D01*
X79628051Y-124524136D01*
X79668850Y-124551396D01*
X79706779Y-124582524D01*
X79741476Y-124617221D01*
X79772604Y-124655150D01*
X79799864Y-124695949D01*
X79822995Y-124739222D01*
X79841772Y-124784555D01*
X79856016Y-124831510D01*
X79865588Y-124879635D01*
X79870398Y-124928466D01*
X79870398Y-124953000D01*
X79871000Y-124953000D01*
X79871000Y-125453000D01*
X78371000Y-125453000D01*
G37*
%TD*%
%TO.C,R58*%
G36*
G01*
X139055000Y-137911000D02*
X137805000Y-137911000D01*
G75*
G02*
X137555000Y-137661000I0J250000D01*
G01*
X137555000Y-136861000D01*
G75*
G02*
X137805000Y-136611000I250000J0D01*
G01*
X139055000Y-136611000D01*
G75*
G02*
X139305000Y-136861000I0J-250000D01*
G01*
X139305000Y-137661000D01*
G75*
G02*
X139055000Y-137911000I-250000J0D01*
G01*
G37*
G36*
G01*
X139055000Y-141011000D02*
X137805000Y-141011000D01*
G75*
G02*
X137555000Y-140761000I0J250000D01*
G01*
X137555000Y-139961000D01*
G75*
G02*
X137805000Y-139711000I250000J0D01*
G01*
X139055000Y-139711000D01*
G75*
G02*
X139305000Y-139961000I0J-250000D01*
G01*
X139305000Y-140761000D01*
G75*
G02*
X139055000Y-141011000I-250000J0D01*
G01*
G37*
%TD*%
%TO.C,R56*%
G36*
G01*
X122438000Y-139610000D02*
X123688000Y-139610000D01*
G75*
G02*
X123938000Y-139860000I0J-250000D01*
G01*
X123938000Y-140660000D01*
G75*
G02*
X123688000Y-140910000I-250000J0D01*
G01*
X122438000Y-140910000D01*
G75*
G02*
X122188000Y-140660000I0J250000D01*
G01*
X122188000Y-139860000D01*
G75*
G02*
X122438000Y-139610000I250000J0D01*
G01*
G37*
G36*
G01*
X122438000Y-136510000D02*
X123688000Y-136510000D01*
G75*
G02*
X123938000Y-136760000I0J-250000D01*
G01*
X123938000Y-137560000D01*
G75*
G02*
X123688000Y-137810000I-250000J0D01*
G01*
X122438000Y-137810000D01*
G75*
G02*
X122188000Y-137560000I0J250000D01*
G01*
X122188000Y-136760000D01*
G75*
G02*
X122438000Y-136510000I250000J0D01*
G01*
G37*
%TD*%
%TO.C,Meas.1*%
G36*
X84442398Y-126268000D02*
G01*
X84442398Y-126292534D01*
X84437588Y-126341365D01*
X84428016Y-126389490D01*
X84413772Y-126436445D01*
X84394995Y-126481778D01*
X84371864Y-126525051D01*
X84344604Y-126565850D01*
X84313476Y-126603779D01*
X84278779Y-126638476D01*
X84240850Y-126669604D01*
X84200051Y-126696864D01*
X84156778Y-126719995D01*
X84111445Y-126738772D01*
X84064490Y-126753016D01*
X84016365Y-126762588D01*
X83967534Y-126767398D01*
X83943000Y-126767398D01*
X83943000Y-126768000D01*
X83443000Y-126768000D01*
X83443000Y-126767398D01*
X83418466Y-126767398D01*
X83369635Y-126762588D01*
X83321510Y-126753016D01*
X83274555Y-126738772D01*
X83229222Y-126719995D01*
X83185949Y-126696864D01*
X83145150Y-126669604D01*
X83107221Y-126638476D01*
X83072524Y-126603779D01*
X83041396Y-126565850D01*
X83014136Y-126525051D01*
X82991005Y-126481778D01*
X82972228Y-126436445D01*
X82957984Y-126389490D01*
X82948412Y-126341365D01*
X82943602Y-126292534D01*
X82943602Y-126268000D01*
X82943000Y-126268000D01*
X82943000Y-125768000D01*
X84443000Y-125768000D01*
X84443000Y-126268000D01*
X84442398Y-126268000D01*
G37*
G36*
X82943000Y-125468000D02*
G01*
X82943000Y-124968000D01*
X82943602Y-124968000D01*
X82943602Y-124943466D01*
X82948412Y-124894635D01*
X82957984Y-124846510D01*
X82972228Y-124799555D01*
X82991005Y-124754222D01*
X83014136Y-124710949D01*
X83041396Y-124670150D01*
X83072524Y-124632221D01*
X83107221Y-124597524D01*
X83145150Y-124566396D01*
X83185949Y-124539136D01*
X83229222Y-124516005D01*
X83274555Y-124497228D01*
X83321510Y-124482984D01*
X83369635Y-124473412D01*
X83418466Y-124468602D01*
X83443000Y-124468602D01*
X83443000Y-124468000D01*
X83943000Y-124468000D01*
X83943000Y-124468602D01*
X83967534Y-124468602D01*
X84016365Y-124473412D01*
X84064490Y-124482984D01*
X84111445Y-124497228D01*
X84156778Y-124516005D01*
X84200051Y-124539136D01*
X84240850Y-124566396D01*
X84278779Y-124597524D01*
X84313476Y-124632221D01*
X84344604Y-124670150D01*
X84371864Y-124710949D01*
X84394995Y-124754222D01*
X84413772Y-124799555D01*
X84428016Y-124846510D01*
X84437588Y-124894635D01*
X84442398Y-124943466D01*
X84442398Y-124968000D01*
X84443000Y-124968000D01*
X84443000Y-125468000D01*
X82943000Y-125468000D01*
G37*
%TD*%
D18*
%TO.C,D7*%
X144584000Y-144214000D03*
X145484000Y-144214000D03*
X145484000Y-143314000D03*
X144584000Y-143314000D03*
%TD*%
%TO.C,C15*%
G36*
G01*
X114035000Y-93666999D02*
X114035000Y-95817001D01*
G75*
G02*
X113785001Y-96067000I-249999J0D01*
G01*
X113159999Y-96067000D01*
G75*
G02*
X112910000Y-95817001I0J249999D01*
G01*
X112910000Y-93666999D01*
G75*
G02*
X113159999Y-93417000I249999J0D01*
G01*
X113785001Y-93417000D01*
G75*
G02*
X114035000Y-93666999I0J-249999D01*
G01*
G37*
G36*
G01*
X116960000Y-93666999D02*
X116960000Y-95817001D01*
G75*
G02*
X116710001Y-96067000I-249999J0D01*
G01*
X116084999Y-96067000D01*
G75*
G02*
X115835000Y-95817001I0J249999D01*
G01*
X115835000Y-93666999D01*
G75*
G02*
X116084999Y-93417000I249999J0D01*
G01*
X116710001Y-93417000D01*
G75*
G02*
X116960000Y-93666999I0J-249999D01*
G01*
G37*
%TD*%
D14*
%TO.C,U1*%
X103251000Y-150302000D03*
X103251000Y-149352000D03*
X103251000Y-148402000D03*
X101051000Y-148402000D03*
X101051000Y-150302000D03*
%TD*%
%TO.C,R55*%
G36*
G01*
X117617000Y-149108000D02*
X117617000Y-150358000D01*
G75*
G02*
X117367000Y-150608000I-250000J0D01*
G01*
X116567000Y-150608000D01*
G75*
G02*
X116317000Y-150358000I0J250000D01*
G01*
X116317000Y-149108000D01*
G75*
G02*
X116567000Y-148858000I250000J0D01*
G01*
X117367000Y-148858000D01*
G75*
G02*
X117617000Y-149108000I0J-250000D01*
G01*
G37*
G36*
G01*
X120717000Y-149108000D02*
X120717000Y-150358000D01*
G75*
G02*
X120467000Y-150608000I-250000J0D01*
G01*
X119667000Y-150608000D01*
G75*
G02*
X119417000Y-150358000I0J250000D01*
G01*
X119417000Y-149108000D01*
G75*
G02*
X119667000Y-148858000I250000J0D01*
G01*
X120467000Y-148858000D01*
G75*
G02*
X120717000Y-149108000I0J-250000D01*
G01*
G37*
%TD*%
%TO.C,R54*%
G36*
G01*
X112940000Y-150358000D02*
X112940000Y-149108000D01*
G75*
G02*
X113190000Y-148858000I250000J0D01*
G01*
X113990000Y-148858000D01*
G75*
G02*
X114240000Y-149108000I0J-250000D01*
G01*
X114240000Y-150358000D01*
G75*
G02*
X113990000Y-150608000I-250000J0D01*
G01*
X113190000Y-150608000D01*
G75*
G02*
X112940000Y-150358000I0J250000D01*
G01*
G37*
G36*
G01*
X109840000Y-150358000D02*
X109840000Y-149108000D01*
G75*
G02*
X110090000Y-148858000I250000J0D01*
G01*
X110890000Y-148858000D01*
G75*
G02*
X111140000Y-149108000I0J-250000D01*
G01*
X111140000Y-150358000D01*
G75*
G02*
X110890000Y-150608000I-250000J0D01*
G01*
X110090000Y-150608000D01*
G75*
G02*
X109840000Y-150358000I0J250000D01*
G01*
G37*
%TD*%
%TO.C,R52*%
G36*
G01*
X113067000Y-138039000D02*
X113067000Y-136789000D01*
G75*
G02*
X113317000Y-136539000I250000J0D01*
G01*
X114117000Y-136539000D01*
G75*
G02*
X114367000Y-136789000I0J-250000D01*
G01*
X114367000Y-138039000D01*
G75*
G02*
X114117000Y-138289000I-250000J0D01*
G01*
X113317000Y-138289000D01*
G75*
G02*
X113067000Y-138039000I0J250000D01*
G01*
G37*
G36*
G01*
X109967000Y-138039000D02*
X109967000Y-136789000D01*
G75*
G02*
X110217000Y-136539000I250000J0D01*
G01*
X111017000Y-136539000D01*
G75*
G02*
X111267000Y-136789000I0J-250000D01*
G01*
X111267000Y-138039000D01*
G75*
G02*
X111017000Y-138289000I-250000J0D01*
G01*
X110217000Y-138289000D01*
G75*
G02*
X109967000Y-138039000I0J250000D01*
G01*
G37*
%TD*%
%TO.C,R51*%
G36*
G01*
X112940000Y-146802000D02*
X112940000Y-145552000D01*
G75*
G02*
X113190000Y-145302000I250000J0D01*
G01*
X113990000Y-145302000D01*
G75*
G02*
X114240000Y-145552000I0J-250000D01*
G01*
X114240000Y-146802000D01*
G75*
G02*
X113990000Y-147052000I-250000J0D01*
G01*
X113190000Y-147052000D01*
G75*
G02*
X112940000Y-146802000I0J250000D01*
G01*
G37*
G36*
G01*
X109840000Y-146802000D02*
X109840000Y-145552000D01*
G75*
G02*
X110090000Y-145302000I250000J0D01*
G01*
X110890000Y-145302000D01*
G75*
G02*
X111140000Y-145552000I0J-250000D01*
G01*
X111140000Y-146802000D01*
G75*
G02*
X110890000Y-147052000I-250000J0D01*
G01*
X110090000Y-147052000D01*
G75*
G02*
X109840000Y-146802000I0J250000D01*
G01*
G37*
%TD*%
%TO.C,R50*%
G36*
G01*
X113041000Y-141595000D02*
X113041000Y-140345000D01*
G75*
G02*
X113291000Y-140095000I250000J0D01*
G01*
X114091000Y-140095000D01*
G75*
G02*
X114341000Y-140345000I0J-250000D01*
G01*
X114341000Y-141595000D01*
G75*
G02*
X114091000Y-141845000I-250000J0D01*
G01*
X113291000Y-141845000D01*
G75*
G02*
X113041000Y-141595000I0J250000D01*
G01*
G37*
G36*
G01*
X109941000Y-141595000D02*
X109941000Y-140345000D01*
G75*
G02*
X110191000Y-140095000I250000J0D01*
G01*
X110991000Y-140095000D01*
G75*
G02*
X111241000Y-140345000I0J-250000D01*
G01*
X111241000Y-141595000D01*
G75*
G02*
X110991000Y-141845000I-250000J0D01*
G01*
X110191000Y-141845000D01*
G75*
G02*
X109941000Y-141595000I0J250000D01*
G01*
G37*
%TD*%
%TO.C,R49*%
G36*
G01*
X101335000Y-144028000D02*
X101335000Y-145278000D01*
G75*
G02*
X101085000Y-145528000I-250000J0D01*
G01*
X100285000Y-145528000D01*
G75*
G02*
X100035000Y-145278000I0J250000D01*
G01*
X100035000Y-144028000D01*
G75*
G02*
X100285000Y-143778000I250000J0D01*
G01*
X101085000Y-143778000D01*
G75*
G02*
X101335000Y-144028000I0J-250000D01*
G01*
G37*
G36*
G01*
X104435000Y-144028000D02*
X104435000Y-145278000D01*
G75*
G02*
X104185000Y-145528000I-250000J0D01*
G01*
X103385000Y-145528000D01*
G75*
G02*
X103135000Y-145278000I0J250000D01*
G01*
X103135000Y-144028000D01*
G75*
G02*
X103385000Y-143778000I250000J0D01*
G01*
X104185000Y-143778000D01*
G75*
G02*
X104435000Y-144028000I0J-250000D01*
G01*
G37*
%TD*%
%TO.C,R47*%
G36*
G01*
X88736000Y-143520000D02*
X88736000Y-144770000D01*
G75*
G02*
X88486000Y-145020000I-250000J0D01*
G01*
X87686000Y-145020000D01*
G75*
G02*
X87436000Y-144770000I0J250000D01*
G01*
X87436000Y-143520000D01*
G75*
G02*
X87686000Y-143270000I250000J0D01*
G01*
X88486000Y-143270000D01*
G75*
G02*
X88736000Y-143520000I0J-250000D01*
G01*
G37*
G36*
G01*
X91836000Y-143520000D02*
X91836000Y-144770000D01*
G75*
G02*
X91586000Y-145020000I-250000J0D01*
G01*
X90786000Y-145020000D01*
G75*
G02*
X90536000Y-144770000I0J250000D01*
G01*
X90536000Y-143520000D01*
G75*
G02*
X90786000Y-143270000I250000J0D01*
G01*
X91586000Y-143270000D01*
G75*
G02*
X91836000Y-143520000I0J-250000D01*
G01*
G37*
%TD*%
%TO.C,R46*%
G36*
G01*
X106436000Y-150480000D02*
X107686000Y-150480000D01*
G75*
G02*
X107936000Y-150730000I0J-250000D01*
G01*
X107936000Y-151530000D01*
G75*
G02*
X107686000Y-151780000I-250000J0D01*
G01*
X106436000Y-151780000D01*
G75*
G02*
X106186000Y-151530000I0J250000D01*
G01*
X106186000Y-150730000D01*
G75*
G02*
X106436000Y-150480000I250000J0D01*
G01*
G37*
G36*
G01*
X106436000Y-147380000D02*
X107686000Y-147380000D01*
G75*
G02*
X107936000Y-147630000I0J-250000D01*
G01*
X107936000Y-148430000D01*
G75*
G02*
X107686000Y-148680000I-250000J0D01*
G01*
X106436000Y-148680000D01*
G75*
G02*
X106186000Y-148430000I0J250000D01*
G01*
X106186000Y-147630000D01*
G75*
G02*
X106436000Y-147380000I250000J0D01*
G01*
G37*
%TD*%
%TO.C,R45*%
G36*
G01*
X83068000Y-131583000D02*
X84318000Y-131583000D01*
G75*
G02*
X84568000Y-131833000I0J-250000D01*
G01*
X84568000Y-132633000D01*
G75*
G02*
X84318000Y-132883000I-250000J0D01*
G01*
X83068000Y-132883000D01*
G75*
G02*
X82818000Y-132633000I0J250000D01*
G01*
X82818000Y-131833000D01*
G75*
G02*
X83068000Y-131583000I250000J0D01*
G01*
G37*
G36*
G01*
X83068000Y-128483000D02*
X84318000Y-128483000D01*
G75*
G02*
X84568000Y-128733000I0J-250000D01*
G01*
X84568000Y-129533000D01*
G75*
G02*
X84318000Y-129783000I-250000J0D01*
G01*
X83068000Y-129783000D01*
G75*
G02*
X82818000Y-129533000I0J250000D01*
G01*
X82818000Y-128733000D01*
G75*
G02*
X83068000Y-128483000I250000J0D01*
G01*
G37*
%TD*%
D15*
%TO.C,D4*%
X89281000Y-139827000D03*
D16*
X96901000Y-139827000D03*
%TD*%
D15*
%TO.C,D3*%
X94361000Y-135382000D03*
D16*
X101981000Y-135382000D03*
%TD*%
D15*
%TO.C,D2*%
X78613000Y-139827000D03*
D16*
X86233000Y-139827000D03*
%TD*%
D15*
%TO.C,D1*%
X83693000Y-135382000D03*
D16*
X91313000Y-135382000D03*
%TD*%
%TO.C,C8*%
G36*
G01*
X94538500Y-147641999D02*
X94538500Y-149792001D01*
G75*
G02*
X94288501Y-150042000I-249999J0D01*
G01*
X93663499Y-150042000D01*
G75*
G02*
X93413500Y-149792001I0J249999D01*
G01*
X93413500Y-147641999D01*
G75*
G02*
X93663499Y-147392000I249999J0D01*
G01*
X94288501Y-147392000D01*
G75*
G02*
X94538500Y-147641999I0J-249999D01*
G01*
G37*
G36*
G01*
X97463500Y-147641999D02*
X97463500Y-149792001D01*
G75*
G02*
X97213501Y-150042000I-249999J0D01*
G01*
X96588499Y-150042000D01*
G75*
G02*
X96338500Y-149792001I0J249999D01*
G01*
X96338500Y-147641999D01*
G75*
G02*
X96588499Y-147392000I249999J0D01*
G01*
X97213501Y-147392000D01*
G75*
G02*
X97463500Y-147641999I0J-249999D01*
G01*
G37*
%TD*%
%TO.C,C7*%
G36*
G01*
X101270000Y-139259999D02*
X101270000Y-141410001D01*
G75*
G02*
X101020001Y-141660000I-249999J0D01*
G01*
X100394999Y-141660000D01*
G75*
G02*
X100145000Y-141410001I0J249999D01*
G01*
X100145000Y-139259999D01*
G75*
G02*
X100394999Y-139010000I249999J0D01*
G01*
X101020001Y-139010000D01*
G75*
G02*
X101270000Y-139259999I0J-249999D01*
G01*
G37*
G36*
G01*
X104195000Y-139259999D02*
X104195000Y-141410001D01*
G75*
G02*
X103945001Y-141660000I-249999J0D01*
G01*
X103319999Y-141660000D01*
G75*
G02*
X103070000Y-141410001I0J249999D01*
G01*
X103070000Y-139259999D01*
G75*
G02*
X103319999Y-139010000I249999J0D01*
G01*
X103945001Y-139010000D01*
G75*
G02*
X104195000Y-139259999I0J-249999D01*
G01*
G37*
%TD*%
D14*
%TO.C,U7*%
X88308000Y-149860000D03*
X88308000Y-147960000D03*
X90508000Y-147960000D03*
X90508000Y-148910000D03*
X90508000Y-149860000D03*
%TD*%
%TO.C,R57*%
G36*
G01*
X117718000Y-136789000D02*
X117718000Y-138039000D01*
G75*
G02*
X117468000Y-138289000I-250000J0D01*
G01*
X116668000Y-138289000D01*
G75*
G02*
X116418000Y-138039000I0J250000D01*
G01*
X116418000Y-136789000D01*
G75*
G02*
X116668000Y-136539000I250000J0D01*
G01*
X117468000Y-136539000D01*
G75*
G02*
X117718000Y-136789000I0J-250000D01*
G01*
G37*
G36*
G01*
X120818000Y-136789000D02*
X120818000Y-138039000D01*
G75*
G02*
X120568000Y-138289000I-250000J0D01*
G01*
X119768000Y-138289000D01*
G75*
G02*
X119518000Y-138039000I0J250000D01*
G01*
X119518000Y-136789000D01*
G75*
G02*
X119768000Y-136539000I250000J0D01*
G01*
X120568000Y-136539000D01*
G75*
G02*
X120818000Y-136789000I0J-250000D01*
G01*
G37*
%TD*%
%TO.C,R53*%
G36*
G01*
X94578000Y-143520000D02*
X94578000Y-144770000D01*
G75*
G02*
X94328000Y-145020000I-250000J0D01*
G01*
X93528000Y-145020000D01*
G75*
G02*
X93278000Y-144770000I0J250000D01*
G01*
X93278000Y-143520000D01*
G75*
G02*
X93528000Y-143270000I250000J0D01*
G01*
X94328000Y-143270000D01*
G75*
G02*
X94578000Y-143520000I0J-250000D01*
G01*
G37*
G36*
G01*
X97678000Y-143520000D02*
X97678000Y-144770000D01*
G75*
G02*
X97428000Y-145020000I-250000J0D01*
G01*
X96628000Y-145020000D01*
G75*
G02*
X96378000Y-144770000I0J250000D01*
G01*
X96378000Y-143520000D01*
G75*
G02*
X96628000Y-143270000I250000J0D01*
G01*
X97428000Y-143270000D01*
G75*
G02*
X97678000Y-143520000I0J-250000D01*
G01*
G37*
%TD*%
%TO.C,R48*%
G36*
G01*
X77861000Y-133768000D02*
X79111000Y-133768000D01*
G75*
G02*
X79361000Y-134018000I0J-250000D01*
G01*
X79361000Y-134818000D01*
G75*
G02*
X79111000Y-135068000I-250000J0D01*
G01*
X77861000Y-135068000D01*
G75*
G02*
X77611000Y-134818000I0J250000D01*
G01*
X77611000Y-134018000D01*
G75*
G02*
X77861000Y-133768000I250000J0D01*
G01*
G37*
G36*
G01*
X77861000Y-130668000D02*
X79111000Y-130668000D01*
G75*
G02*
X79361000Y-130918000I0J-250000D01*
G01*
X79361000Y-131718000D01*
G75*
G02*
X79111000Y-131968000I-250000J0D01*
G01*
X77861000Y-131968000D01*
G75*
G02*
X77611000Y-131718000I0J250000D01*
G01*
X77611000Y-130918000D01*
G75*
G02*
X77861000Y-130668000I250000J0D01*
G01*
G37*
%TD*%
D11*
%TO.C,Power1*%
X101346000Y-154940000D03*
D12*
X103886000Y-154940000D03*
%TD*%
D11*
%TO.C,I2C-Reset1*%
X129540000Y-69342000D03*
X127000000Y-69342000D03*
X124460000Y-69342000D03*
D12*
X121920000Y-69342000D03*
%TD*%
%TO.C,R43*%
G36*
G01*
X95863500Y-101755000D02*
X95863500Y-98905000D01*
G75*
G02*
X96113500Y-98655000I250000J0D01*
G01*
X96838500Y-98655000D01*
G75*
G02*
X97088500Y-98905000I0J-250000D01*
G01*
X97088500Y-101755000D01*
G75*
G02*
X96838500Y-102005000I-250000J0D01*
G01*
X96113500Y-102005000D01*
G75*
G02*
X95863500Y-101755000I0J250000D01*
G01*
G37*
G36*
G01*
X89938500Y-101755000D02*
X89938500Y-98905000D01*
G75*
G02*
X90188500Y-98655000I250000J0D01*
G01*
X90913500Y-98655000D01*
G75*
G02*
X91163500Y-98905000I0J-250000D01*
G01*
X91163500Y-101755000D01*
G75*
G02*
X90913500Y-102005000I-250000J0D01*
G01*
X90188500Y-102005000D01*
G75*
G02*
X89938500Y-101755000I0J250000D01*
G01*
G37*
%TD*%
%TO.C,R42*%
G36*
G01*
X91207500Y-104239000D02*
X91207500Y-107089000D01*
G75*
G02*
X90957500Y-107339000I-250000J0D01*
G01*
X90232500Y-107339000D01*
G75*
G02*
X89982500Y-107089000I0J250000D01*
G01*
X89982500Y-104239000D01*
G75*
G02*
X90232500Y-103989000I250000J0D01*
G01*
X90957500Y-103989000D01*
G75*
G02*
X91207500Y-104239000I0J-250000D01*
G01*
G37*
G36*
G01*
X97132500Y-104239000D02*
X97132500Y-107089000D01*
G75*
G02*
X96882500Y-107339000I-250000J0D01*
G01*
X96157500Y-107339000D01*
G75*
G02*
X95907500Y-107089000I0J250000D01*
G01*
X95907500Y-104239000D01*
G75*
G02*
X96157500Y-103989000I250000J0D01*
G01*
X96882500Y-103989000D01*
G75*
G02*
X97132500Y-104239000I0J-250000D01*
G01*
G37*
%TD*%
%TO.C,R41*%
G36*
G01*
X115294000Y-112423000D02*
X115294000Y-109573000D01*
G75*
G02*
X115544000Y-109323000I250000J0D01*
G01*
X116269000Y-109323000D01*
G75*
G02*
X116519000Y-109573000I0J-250000D01*
G01*
X116519000Y-112423000D01*
G75*
G02*
X116269000Y-112673000I-250000J0D01*
G01*
X115544000Y-112673000D01*
G75*
G02*
X115294000Y-112423000I0J250000D01*
G01*
G37*
G36*
G01*
X109369000Y-112423000D02*
X109369000Y-109573000D01*
G75*
G02*
X109619000Y-109323000I250000J0D01*
G01*
X110344000Y-109323000D01*
G75*
G02*
X110594000Y-109573000I0J-250000D01*
G01*
X110594000Y-112423000D01*
G75*
G02*
X110344000Y-112673000I-250000J0D01*
G01*
X109619000Y-112673000D01*
G75*
G02*
X109369000Y-112423000I0J250000D01*
G01*
G37*
%TD*%
%TO.C,R40*%
G36*
G01*
X115253000Y-107089000D02*
X115253000Y-104239000D01*
G75*
G02*
X115503000Y-103989000I250000J0D01*
G01*
X116228000Y-103989000D01*
G75*
G02*
X116478000Y-104239000I0J-250000D01*
G01*
X116478000Y-107089000D01*
G75*
G02*
X116228000Y-107339000I-250000J0D01*
G01*
X115503000Y-107339000D01*
G75*
G02*
X115253000Y-107089000I0J250000D01*
G01*
G37*
G36*
G01*
X109328000Y-107089000D02*
X109328000Y-104239000D01*
G75*
G02*
X109578000Y-103989000I250000J0D01*
G01*
X110303000Y-103989000D01*
G75*
G02*
X110553000Y-104239000I0J-250000D01*
G01*
X110553000Y-107089000D01*
G75*
G02*
X110303000Y-107339000I-250000J0D01*
G01*
X109578000Y-107339000D01*
G75*
G02*
X109328000Y-107089000I0J250000D01*
G01*
G37*
%TD*%
%TO.C,R39*%
G36*
G01*
X125067000Y-111443000D02*
X127917000Y-111443000D01*
G75*
G02*
X128167000Y-111693000I0J-250000D01*
G01*
X128167000Y-112418000D01*
G75*
G02*
X127917000Y-112668000I-250000J0D01*
G01*
X125067000Y-112668000D01*
G75*
G02*
X124817000Y-112418000I0J250000D01*
G01*
X124817000Y-111693000D01*
G75*
G02*
X125067000Y-111443000I250000J0D01*
G01*
G37*
G36*
G01*
X125067000Y-105518000D02*
X127917000Y-105518000D01*
G75*
G02*
X128167000Y-105768000I0J-250000D01*
G01*
X128167000Y-106493000D01*
G75*
G02*
X127917000Y-106743000I-250000J0D01*
G01*
X125067000Y-106743000D01*
G75*
G02*
X124817000Y-106493000I0J250000D01*
G01*
X124817000Y-105768000D01*
G75*
G02*
X125067000Y-105518000I250000J0D01*
G01*
G37*
%TD*%
%TO.C,R18*%
G36*
G01*
X137478000Y-103152000D02*
X137478000Y-100302000D01*
G75*
G02*
X137728000Y-100052000I250000J0D01*
G01*
X138453000Y-100052000D01*
G75*
G02*
X138703000Y-100302000I0J-250000D01*
G01*
X138703000Y-103152000D01*
G75*
G02*
X138453000Y-103402000I-250000J0D01*
G01*
X137728000Y-103402000D01*
G75*
G02*
X137478000Y-103152000I0J250000D01*
G01*
G37*
G36*
G01*
X131553000Y-103152000D02*
X131553000Y-100302000D01*
G75*
G02*
X131803000Y-100052000I250000J0D01*
G01*
X132528000Y-100052000D01*
G75*
G02*
X132778000Y-100302000I0J-250000D01*
G01*
X132778000Y-103152000D01*
G75*
G02*
X132528000Y-103402000I-250000J0D01*
G01*
X131803000Y-103402000D01*
G75*
G02*
X131553000Y-103152000I0J250000D01*
G01*
G37*
%TD*%
%TO.C,R7*%
G36*
G01*
X137605000Y-112296000D02*
X137605000Y-109446000D01*
G75*
G02*
X137855000Y-109196000I250000J0D01*
G01*
X138580000Y-109196000D01*
G75*
G02*
X138830000Y-109446000I0J-250000D01*
G01*
X138830000Y-112296000D01*
G75*
G02*
X138580000Y-112546000I-250000J0D01*
G01*
X137855000Y-112546000D01*
G75*
G02*
X137605000Y-112296000I0J250000D01*
G01*
G37*
G36*
G01*
X131680000Y-112296000D02*
X131680000Y-109446000D01*
G75*
G02*
X131930000Y-109196000I250000J0D01*
G01*
X132655000Y-109196000D01*
G75*
G02*
X132905000Y-109446000I0J-250000D01*
G01*
X132905000Y-112296000D01*
G75*
G02*
X132655000Y-112546000I-250000J0D01*
G01*
X131930000Y-112546000D01*
G75*
G02*
X131680000Y-112296000I0J250000D01*
G01*
G37*
%TD*%
%TO.C,R38*%
G36*
G01*
X134013000Y-92560500D02*
X131163000Y-92560500D01*
G75*
G02*
X130913000Y-92310500I0J250000D01*
G01*
X130913000Y-91585500D01*
G75*
G02*
X131163000Y-91335500I250000J0D01*
G01*
X134013000Y-91335500D01*
G75*
G02*
X134263000Y-91585500I0J-250000D01*
G01*
X134263000Y-92310500D01*
G75*
G02*
X134013000Y-92560500I-250000J0D01*
G01*
G37*
G36*
G01*
X134013000Y-98485500D02*
X131163000Y-98485500D01*
G75*
G02*
X130913000Y-98235500I0J250000D01*
G01*
X130913000Y-97510500D01*
G75*
G02*
X131163000Y-97260500I250000J0D01*
G01*
X134013000Y-97260500D01*
G75*
G02*
X134263000Y-97510500I0J-250000D01*
G01*
X134263000Y-98235500D01*
G75*
G02*
X134013000Y-98485500I-250000J0D01*
G01*
G37*
%TD*%
%TO.C,R37*%
G36*
G01*
X127917000Y-87988500D02*
X125067000Y-87988500D01*
G75*
G02*
X124817000Y-87738500I0J250000D01*
G01*
X124817000Y-87013500D01*
G75*
G02*
X125067000Y-86763500I250000J0D01*
G01*
X127917000Y-86763500D01*
G75*
G02*
X128167000Y-87013500I0J-250000D01*
G01*
X128167000Y-87738500D01*
G75*
G02*
X127917000Y-87988500I-250000J0D01*
G01*
G37*
G36*
G01*
X127917000Y-93913500D02*
X125067000Y-93913500D01*
G75*
G02*
X124817000Y-93663500I0J250000D01*
G01*
X124817000Y-92938500D01*
G75*
G02*
X125067000Y-92688500I250000J0D01*
G01*
X127917000Y-92688500D01*
G75*
G02*
X128167000Y-92938500I0J-250000D01*
G01*
X128167000Y-93663500D01*
G75*
G02*
X127917000Y-93913500I-250000J0D01*
G01*
G37*
%TD*%
%TO.C,R36*%
G36*
G01*
X125067000Y-101156000D02*
X127917000Y-101156000D01*
G75*
G02*
X128167000Y-101406000I0J-250000D01*
G01*
X128167000Y-102131000D01*
G75*
G02*
X127917000Y-102381000I-250000J0D01*
G01*
X125067000Y-102381000D01*
G75*
G02*
X124817000Y-102131000I0J250000D01*
G01*
X124817000Y-101406000D01*
G75*
G02*
X125067000Y-101156000I250000J0D01*
G01*
G37*
G36*
G01*
X125067000Y-95231000D02*
X127917000Y-95231000D01*
G75*
G02*
X128167000Y-95481000I0J-250000D01*
G01*
X128167000Y-96206000D01*
G75*
G02*
X127917000Y-96456000I-250000J0D01*
G01*
X125067000Y-96456000D01*
G75*
G02*
X124817000Y-96206000I0J250000D01*
G01*
X124817000Y-95481000D01*
G75*
G02*
X125067000Y-95231000I250000J0D01*
G01*
G37*
%TD*%
%TO.C,R35*%
G36*
G01*
X122075000Y-96541500D02*
X119225000Y-96541500D01*
G75*
G02*
X118975000Y-96291500I0J250000D01*
G01*
X118975000Y-95566500D01*
G75*
G02*
X119225000Y-95316500I250000J0D01*
G01*
X122075000Y-95316500D01*
G75*
G02*
X122325000Y-95566500I0J-250000D01*
G01*
X122325000Y-96291500D01*
G75*
G02*
X122075000Y-96541500I-250000J0D01*
G01*
G37*
G36*
G01*
X122075000Y-102466500D02*
X119225000Y-102466500D01*
G75*
G02*
X118975000Y-102216500I0J250000D01*
G01*
X118975000Y-101491500D01*
G75*
G02*
X119225000Y-101241500I250000J0D01*
G01*
X122075000Y-101241500D01*
G75*
G02*
X122325000Y-101491500I0J-250000D01*
G01*
X122325000Y-102216500D01*
G75*
G02*
X122075000Y-102466500I-250000J0D01*
G01*
G37*
%TD*%
%TO.C,R12*%
G36*
G01*
X122075000Y-87988500D02*
X119225000Y-87988500D01*
G75*
G02*
X118975000Y-87738500I0J250000D01*
G01*
X118975000Y-87013500D01*
G75*
G02*
X119225000Y-86763500I250000J0D01*
G01*
X122075000Y-86763500D01*
G75*
G02*
X122325000Y-87013500I0J-250000D01*
G01*
X122325000Y-87738500D01*
G75*
G02*
X122075000Y-87988500I-250000J0D01*
G01*
G37*
G36*
G01*
X122075000Y-93913500D02*
X119225000Y-93913500D01*
G75*
G02*
X118975000Y-93663500I0J250000D01*
G01*
X118975000Y-92938500D01*
G75*
G02*
X119225000Y-92688500I250000J0D01*
G01*
X122075000Y-92688500D01*
G75*
G02*
X122325000Y-92938500I0J-250000D01*
G01*
X122325000Y-93663500D01*
G75*
G02*
X122075000Y-93913500I-250000J0D01*
G01*
G37*
%TD*%
%TO.C,R10*%
G36*
G01*
X116523000Y-89944000D02*
X116523000Y-87094000D01*
G75*
G02*
X116773000Y-86844000I250000J0D01*
G01*
X117498000Y-86844000D01*
G75*
G02*
X117748000Y-87094000I0J-250000D01*
G01*
X117748000Y-89944000D01*
G75*
G02*
X117498000Y-90194000I-250000J0D01*
G01*
X116773000Y-90194000D01*
G75*
G02*
X116523000Y-89944000I0J250000D01*
G01*
G37*
G36*
G01*
X110598000Y-89944000D02*
X110598000Y-87094000D01*
G75*
G02*
X110848000Y-86844000I250000J0D01*
G01*
X111573000Y-86844000D01*
G75*
G02*
X111823000Y-87094000I0J-250000D01*
G01*
X111823000Y-89944000D01*
G75*
G02*
X111573000Y-90194000I-250000J0D01*
G01*
X110848000Y-90194000D01*
G75*
G02*
X110598000Y-89944000I0J250000D01*
G01*
G37*
%TD*%
%TO.C,R8*%
G36*
G01*
X102425000Y-87094000D02*
X102425000Y-89944000D01*
G75*
G02*
X102175000Y-90194000I-250000J0D01*
G01*
X101450000Y-90194000D01*
G75*
G02*
X101200000Y-89944000I0J250000D01*
G01*
X101200000Y-87094000D01*
G75*
G02*
X101450000Y-86844000I250000J0D01*
G01*
X102175000Y-86844000D01*
G75*
G02*
X102425000Y-87094000I0J-250000D01*
G01*
G37*
G36*
G01*
X108350000Y-87094000D02*
X108350000Y-89944000D01*
G75*
G02*
X108100000Y-90194000I-250000J0D01*
G01*
X107375000Y-90194000D01*
G75*
G02*
X107125000Y-89944000I0J250000D01*
G01*
X107125000Y-87094000D01*
G75*
G02*
X107375000Y-86844000I250000J0D01*
G01*
X108100000Y-86844000D01*
G75*
G02*
X108350000Y-87094000I0J-250000D01*
G01*
G37*
%TD*%
%TO.C,R17*%
G36*
G01*
X105388000Y-101755000D02*
X105388000Y-98905000D01*
G75*
G02*
X105638000Y-98655000I250000J0D01*
G01*
X106363000Y-98655000D01*
G75*
G02*
X106613000Y-98905000I0J-250000D01*
G01*
X106613000Y-101755000D01*
G75*
G02*
X106363000Y-102005000I-250000J0D01*
G01*
X105638000Y-102005000D01*
G75*
G02*
X105388000Y-101755000I0J250000D01*
G01*
G37*
G36*
G01*
X99463000Y-101755000D02*
X99463000Y-98905000D01*
G75*
G02*
X99713000Y-98655000I250000J0D01*
G01*
X100438000Y-98655000D01*
G75*
G02*
X100688000Y-98905000I0J-250000D01*
G01*
X100688000Y-101755000D01*
G75*
G02*
X100438000Y-102005000I-250000J0D01*
G01*
X99713000Y-102005000D01*
G75*
G02*
X99463000Y-101755000I0J250000D01*
G01*
G37*
%TD*%
%TO.C,R16*%
G36*
G01*
X95863500Y-112423000D02*
X95863500Y-109573000D01*
G75*
G02*
X96113500Y-109323000I250000J0D01*
G01*
X96838500Y-109323000D01*
G75*
G02*
X97088500Y-109573000I0J-250000D01*
G01*
X97088500Y-112423000D01*
G75*
G02*
X96838500Y-112673000I-250000J0D01*
G01*
X96113500Y-112673000D01*
G75*
G02*
X95863500Y-112423000I0J250000D01*
G01*
G37*
G36*
G01*
X89938500Y-112423000D02*
X89938500Y-109573000D01*
G75*
G02*
X90188500Y-109323000I250000J0D01*
G01*
X90913500Y-109323000D01*
G75*
G02*
X91163500Y-109573000I0J-250000D01*
G01*
X91163500Y-112423000D01*
G75*
G02*
X90913500Y-112673000I-250000J0D01*
G01*
X90188500Y-112673000D01*
G75*
G02*
X89938500Y-112423000I0J250000D01*
G01*
G37*
%TD*%
%TO.C,R15*%
G36*
G01*
X132946000Y-87094000D02*
X132946000Y-89944000D01*
G75*
G02*
X132696000Y-90194000I-250000J0D01*
G01*
X131971000Y-90194000D01*
G75*
G02*
X131721000Y-89944000I0J250000D01*
G01*
X131721000Y-87094000D01*
G75*
G02*
X131971000Y-86844000I250000J0D01*
G01*
X132696000Y-86844000D01*
G75*
G02*
X132946000Y-87094000I0J-250000D01*
G01*
G37*
G36*
G01*
X138871000Y-87094000D02*
X138871000Y-89944000D01*
G75*
G02*
X138621000Y-90194000I-250000J0D01*
G01*
X137896000Y-90194000D01*
G75*
G02*
X137646000Y-89944000I0J250000D01*
G01*
X137646000Y-87094000D01*
G75*
G02*
X137896000Y-86844000I250000J0D01*
G01*
X138621000Y-86844000D01*
G75*
G02*
X138871000Y-87094000I0J-250000D01*
G01*
G37*
%TD*%
%TO.C,R14*%
G36*
G01*
X139728000Y-92687500D02*
X136878000Y-92687500D01*
G75*
G02*
X136628000Y-92437500I0J250000D01*
G01*
X136628000Y-91712500D01*
G75*
G02*
X136878000Y-91462500I250000J0D01*
G01*
X139728000Y-91462500D01*
G75*
G02*
X139978000Y-91712500I0J-250000D01*
G01*
X139978000Y-92437500D01*
G75*
G02*
X139728000Y-92687500I-250000J0D01*
G01*
G37*
G36*
G01*
X139728000Y-98612500D02*
X136878000Y-98612500D01*
G75*
G02*
X136628000Y-98362500I0J250000D01*
G01*
X136628000Y-97637500D01*
G75*
G02*
X136878000Y-97387500I250000J0D01*
G01*
X139728000Y-97387500D01*
G75*
G02*
X139978000Y-97637500I0J-250000D01*
G01*
X139978000Y-98362500D01*
G75*
G02*
X139728000Y-98612500I-250000J0D01*
G01*
G37*
%TD*%
%TO.C,R13*%
G36*
G01*
X105388000Y-112423000D02*
X105388000Y-109573000D01*
G75*
G02*
X105638000Y-109323000I250000J0D01*
G01*
X106363000Y-109323000D01*
G75*
G02*
X106613000Y-109573000I0J-250000D01*
G01*
X106613000Y-112423000D01*
G75*
G02*
X106363000Y-112673000I-250000J0D01*
G01*
X105638000Y-112673000D01*
G75*
G02*
X105388000Y-112423000I0J250000D01*
G01*
G37*
G36*
G01*
X99463000Y-112423000D02*
X99463000Y-109573000D01*
G75*
G02*
X99713000Y-109323000I250000J0D01*
G01*
X100438000Y-109323000D01*
G75*
G02*
X100688000Y-109573000I0J-250000D01*
G01*
X100688000Y-112423000D01*
G75*
G02*
X100438000Y-112673000I-250000J0D01*
G01*
X99713000Y-112673000D01*
G75*
G02*
X99463000Y-112423000I0J250000D01*
G01*
G37*
%TD*%
%TO.C,R11*%
G36*
G01*
X100647000Y-104239000D02*
X100647000Y-107089000D01*
G75*
G02*
X100397000Y-107339000I-250000J0D01*
G01*
X99672000Y-107339000D01*
G75*
G02*
X99422000Y-107089000I0J250000D01*
G01*
X99422000Y-104239000D01*
G75*
G02*
X99672000Y-103989000I250000J0D01*
G01*
X100397000Y-103989000D01*
G75*
G02*
X100647000Y-104239000I0J-250000D01*
G01*
G37*
G36*
G01*
X106572000Y-104239000D02*
X106572000Y-107089000D01*
G75*
G02*
X106322000Y-107339000I-250000J0D01*
G01*
X105597000Y-107339000D01*
G75*
G02*
X105347000Y-107089000I0J250000D01*
G01*
X105347000Y-104239000D01*
G75*
G02*
X105597000Y-103989000I250000J0D01*
G01*
X106322000Y-103989000D01*
G75*
G02*
X106572000Y-104239000I0J-250000D01*
G01*
G37*
%TD*%
%TO.C,R9*%
G36*
G01*
X119225000Y-111484000D02*
X122075000Y-111484000D01*
G75*
G02*
X122325000Y-111734000I0J-250000D01*
G01*
X122325000Y-112459000D01*
G75*
G02*
X122075000Y-112709000I-250000J0D01*
G01*
X119225000Y-112709000D01*
G75*
G02*
X118975000Y-112459000I0J250000D01*
G01*
X118975000Y-111734000D01*
G75*
G02*
X119225000Y-111484000I250000J0D01*
G01*
G37*
G36*
G01*
X119225000Y-105559000D02*
X122075000Y-105559000D01*
G75*
G02*
X122325000Y-105809000I0J-250000D01*
G01*
X122325000Y-106534000D01*
G75*
G02*
X122075000Y-106784000I-250000J0D01*
G01*
X119225000Y-106784000D01*
G75*
G02*
X118975000Y-106534000I0J250000D01*
G01*
X118975000Y-105809000D01*
G75*
G02*
X119225000Y-105559000I250000J0D01*
G01*
G37*
%TD*%
%TO.C,R6*%
G36*
G01*
X137478000Y-107724000D02*
X137478000Y-104874000D01*
G75*
G02*
X137728000Y-104624000I250000J0D01*
G01*
X138453000Y-104624000D01*
G75*
G02*
X138703000Y-104874000I0J-250000D01*
G01*
X138703000Y-107724000D01*
G75*
G02*
X138453000Y-107974000I-250000J0D01*
G01*
X137728000Y-107974000D01*
G75*
G02*
X137478000Y-107724000I0J250000D01*
G01*
G37*
G36*
G01*
X131553000Y-107724000D02*
X131553000Y-104874000D01*
G75*
G02*
X131803000Y-104624000I250000J0D01*
G01*
X132528000Y-104624000D01*
G75*
G02*
X132778000Y-104874000I0J-250000D01*
G01*
X132778000Y-107724000D01*
G75*
G02*
X132528000Y-107974000I-250000J0D01*
G01*
X131803000Y-107974000D01*
G75*
G02*
X131553000Y-107724000I0J250000D01*
G01*
G37*
%TD*%
%TO.C,R5*%
G36*
G01*
X93493500Y-87094000D02*
X93493500Y-89944000D01*
G75*
G02*
X93243500Y-90194000I-250000J0D01*
G01*
X92518500Y-90194000D01*
G75*
G02*
X92268500Y-89944000I0J250000D01*
G01*
X92268500Y-87094000D01*
G75*
G02*
X92518500Y-86844000I250000J0D01*
G01*
X93243500Y-86844000D01*
G75*
G02*
X93493500Y-87094000I0J-250000D01*
G01*
G37*
G36*
G01*
X99418500Y-87094000D02*
X99418500Y-89944000D01*
G75*
G02*
X99168500Y-90194000I-250000J0D01*
G01*
X98443500Y-90194000D01*
G75*
G02*
X98193500Y-89944000I0J250000D01*
G01*
X98193500Y-87094000D01*
G75*
G02*
X98443500Y-86844000I250000J0D01*
G01*
X99168500Y-86844000D01*
G75*
G02*
X99418500Y-87094000I0J-250000D01*
G01*
G37*
%TD*%
%TO.C,R4*%
G36*
G01*
X69949000Y-107846000D02*
X72799000Y-107846000D01*
G75*
G02*
X73049000Y-108096000I0J-250000D01*
G01*
X73049000Y-108821000D01*
G75*
G02*
X72799000Y-109071000I-250000J0D01*
G01*
X69949000Y-109071000D01*
G75*
G02*
X69699000Y-108821000I0J250000D01*
G01*
X69699000Y-108096000D01*
G75*
G02*
X69949000Y-107846000I250000J0D01*
G01*
G37*
G36*
G01*
X69949000Y-101921000D02*
X72799000Y-101921000D01*
G75*
G02*
X73049000Y-102171000I0J-250000D01*
G01*
X73049000Y-102896000D01*
G75*
G02*
X72799000Y-103146000I-250000J0D01*
G01*
X69949000Y-103146000D01*
G75*
G02*
X69699000Y-102896000I0J250000D01*
G01*
X69699000Y-102171000D01*
G75*
G02*
X69949000Y-101921000I250000J0D01*
G01*
G37*
%TD*%
%TO.C,R3*%
G36*
G01*
X69949000Y-117244000D02*
X72799000Y-117244000D01*
G75*
G02*
X73049000Y-117494000I0J-250000D01*
G01*
X73049000Y-118219000D01*
G75*
G02*
X72799000Y-118469000I-250000J0D01*
G01*
X69949000Y-118469000D01*
G75*
G02*
X69699000Y-118219000I0J250000D01*
G01*
X69699000Y-117494000D01*
G75*
G02*
X69949000Y-117244000I250000J0D01*
G01*
G37*
G36*
G01*
X69949000Y-111319000D02*
X72799000Y-111319000D01*
G75*
G02*
X73049000Y-111569000I0J-250000D01*
G01*
X73049000Y-112294000D01*
G75*
G02*
X72799000Y-112544000I-250000J0D01*
G01*
X69949000Y-112544000D01*
G75*
G02*
X69699000Y-112294000I0J250000D01*
G01*
X69699000Y-111569000D01*
G75*
G02*
X69949000Y-111319000I250000J0D01*
G01*
G37*
%TD*%
%TO.C,R2*%
G36*
G01*
X79606500Y-88999000D02*
X79606500Y-91849000D01*
G75*
G02*
X79356500Y-92099000I-250000J0D01*
G01*
X78631500Y-92099000D01*
G75*
G02*
X78381500Y-91849000I0J250000D01*
G01*
X78381500Y-88999000D01*
G75*
G02*
X78631500Y-88749000I250000J0D01*
G01*
X79356500Y-88749000D01*
G75*
G02*
X79606500Y-88999000I0J-250000D01*
G01*
G37*
G36*
G01*
X85531500Y-88999000D02*
X85531500Y-91849000D01*
G75*
G02*
X85281500Y-92099000I-250000J0D01*
G01*
X84556500Y-92099000D01*
G75*
G02*
X84306500Y-91849000I0J250000D01*
G01*
X84306500Y-88999000D01*
G75*
G02*
X84556500Y-88749000I250000J0D01*
G01*
X85281500Y-88749000D01*
G75*
G02*
X85531500Y-88999000I0J-250000D01*
G01*
G37*
%TD*%
%TO.C,R1*%
G36*
G01*
X79606500Y-94079000D02*
X79606500Y-96929000D01*
G75*
G02*
X79356500Y-97179000I-250000J0D01*
G01*
X78631500Y-97179000D01*
G75*
G02*
X78381500Y-96929000I0J250000D01*
G01*
X78381500Y-94079000D01*
G75*
G02*
X78631500Y-93829000I250000J0D01*
G01*
X79356500Y-93829000D01*
G75*
G02*
X79606500Y-94079000I0J-250000D01*
G01*
G37*
G36*
G01*
X85531500Y-94079000D02*
X85531500Y-96929000D01*
G75*
G02*
X85281500Y-97179000I-250000J0D01*
G01*
X84556500Y-97179000D01*
G75*
G02*
X84306500Y-96929000I0J250000D01*
G01*
X84306500Y-94079000D01*
G75*
G02*
X84556500Y-93829000I250000J0D01*
G01*
X85281500Y-93829000D01*
G75*
G02*
X85531500Y-94079000I0J-250000D01*
G01*
G37*
%TD*%
D17*
%TO.C,Load/WB1*%
X84526000Y-108458000D03*
X84526000Y-105258000D03*
X84526000Y-103058000D03*
X84526000Y-100858000D03*
X77526000Y-100858000D03*
X77526000Y-103058000D03*
X77526000Y-105258000D03*
X77526000Y-108458000D03*
%TD*%
D11*
%TO.C,WB-Ref1*%
X71882000Y-124206000D03*
D12*
X71882000Y-126746000D03*
%TD*%
D11*
%TO.C,Zx1*%
X71882000Y-135382000D03*
D12*
X71882000Y-137922000D03*
%TD*%
D19*
%TO.C,Zx2*%
X63246000Y-138874500D03*
D20*
X63246000Y-135382000D03*
D19*
X63246000Y-131889500D03*
%TD*%
D11*
%TO.C,Load/RFIn1*%
X71882000Y-94488000D03*
D12*
X71882000Y-97028000D03*
%TD*%
D19*
%TO.C,Load-RFIn1*%
X63246000Y-97980500D03*
D20*
X63246000Y-94488000D03*
D19*
X63246000Y-90995500D03*
%TD*%
D17*
%TO.C,1200-Ohm1*%
X92822000Y-117094000D03*
X92822000Y-120294000D03*
X92822000Y-122494000D03*
X92822000Y-124694000D03*
X99822000Y-124694000D03*
X99822000Y-122494000D03*
X99822000Y-120294000D03*
X99822000Y-117094000D03*
%TD*%
%TO.C,80-Ohm1*%
X138826000Y-83058000D03*
X138826000Y-79858000D03*
X138826000Y-77658000D03*
X138826000Y-75458000D03*
X131826000Y-75458000D03*
X131826000Y-77658000D03*
X131826000Y-79858000D03*
X131826000Y-83058000D03*
%TD*%
%TO.C,5-Ohm1*%
X85542000Y-83048000D03*
X85542000Y-79848000D03*
X85542000Y-77648000D03*
X85542000Y-75448000D03*
X78542000Y-75448000D03*
X78542000Y-77648000D03*
X78542000Y-79848000D03*
X78542000Y-83048000D03*
%TD*%
%TO.C,640-Ohm1*%
X106030000Y-117094000D03*
X106030000Y-120294000D03*
X106030000Y-122494000D03*
X106030000Y-124694000D03*
X113030000Y-124694000D03*
X113030000Y-122494000D03*
X113030000Y-120294000D03*
X113030000Y-117094000D03*
%TD*%
%TO.C,40-Ohm1*%
X126126000Y-83038000D03*
X126126000Y-79838000D03*
X126126000Y-77638000D03*
X126126000Y-75438000D03*
X119126000Y-75438000D03*
X119126000Y-77638000D03*
X119126000Y-79838000D03*
X119126000Y-83038000D03*
%TD*%
%TO.C,320-Ohm1*%
X119182000Y-117104000D03*
X119182000Y-120304000D03*
X119182000Y-122504000D03*
X119182000Y-124704000D03*
X126182000Y-124704000D03*
X126182000Y-122504000D03*
X126182000Y-120304000D03*
X126182000Y-117104000D03*
%TD*%
%TO.C,160-Ohm1*%
X131938000Y-117196000D03*
X131938000Y-120396000D03*
X131938000Y-122596000D03*
X131938000Y-124796000D03*
X138938000Y-124796000D03*
X138938000Y-122596000D03*
X138938000Y-120396000D03*
X138938000Y-117196000D03*
%TD*%
%TO.C,20-Ohm1*%
X113030000Y-83038000D03*
X113030000Y-79838000D03*
X113030000Y-77638000D03*
X113030000Y-75438000D03*
X106030000Y-75438000D03*
X106030000Y-77638000D03*
X106030000Y-79838000D03*
X106030000Y-83038000D03*
%TD*%
%TO.C,10-Ohm1*%
X99681000Y-83048000D03*
X99681000Y-79848000D03*
X99681000Y-77648000D03*
X99681000Y-75448000D03*
X92681000Y-75448000D03*
X92681000Y-77648000D03*
X92681000Y-79848000D03*
X92681000Y-83048000D03*
%TD*%
M02*
