M48
; DRILL file {KiCad (5.1.12)-1} date 11/19/21 01:02:23
; FORMAT={-:-/ absolute / inch / decimal}
; #@! TF.CreationDate,2021-11-19T01:02:23+01:00
; #@! TF.GenerationSoftware,Kicad,Pcbnew,(5.1.12)-1
; #@! TF.FileFunction,Plated,1,2,PTH
FMAT,2
INCH
T1C0.0157
T2C0.0181
T3C0.0315
T4C0.0394
T5C0.1339
%
G90
G05
T1
X2.81Y-4.64
X2.902Y-3.139
X2.9961Y-4.9638
X3.0602Y-3.2012
X3.1004Y-4.2256
X3.1004Y-4.719
X3.115Y-4.8668
X3.2717Y-5.7501
X3.4058Y-5.8884
X3.4361Y-3.288
X3.468Y-5.7415
X3.555Y-3.3914
X3.5998Y-3.2062
X3.6127Y-5.7339
X3.6575Y-3.9783
X3.711Y-3.7784
X3.74Y-5.5632
X3.7568Y-4.8857
X3.7745Y-5.131
X3.8617Y-4.5681
X3.9244Y-3.3174
X3.9264Y-3.3915
X3.93Y-4.6542
X3.9908Y-4.0285
X4.0207Y-5.9426
X4.0684Y-3.1664
X4.0764Y-3.0462
X4.1375Y-3.2007
X4.2239Y-4.0019
X4.227Y-6.155
X4.2577Y-4.583
X4.2724Y-4.3179
X4.2731Y-4.066
X4.2926Y-3.8544
X4.3058Y-5.0465
X4.3347Y-5.63
X4.3969Y-4.1192
X4.45Y-4.6542
X4.4566Y-3.8565
X4.5097Y-4.8259
X4.5235Y-3.3546
X4.5447Y-3.9355
X4.5472Y-5.5415
X4.5775Y-3.3006
X4.5891Y-4.7577
X4.6004Y-5.3035
X4.6223Y-3.8413
X4.6245Y-4.619
X4.661Y-4.3315
X4.6664Y-3.2068
X4.7678Y-3.9611
X4.7765Y-5.7862
X4.79Y-4.0646
X4.8344Y-2.9538
X4.8443Y-3.5239
X4.8671Y-3.0232
X4.9109Y-5.7085
X4.9196Y-4.6538
X4.9515Y-5.1149
X4.9899Y-5.7871
X5.01Y-5.565
X5.1136Y-5.0976
X5.1776Y-4.9631
X5.2382Y-3.2216
X5.3275Y-4.0793
X5.3803Y-5.695
X5.4583Y-4.654
X5.4736Y-5.6554
X5.5483Y-5.854
X5.5877Y-3.7
X5.5934Y-3.1083
X5.5942Y-3.9591
X5.5942Y-5.1997
X5.6398Y-5.1297
X5.6682Y-4.4808
X5.7006Y-4.9953
X5.7454Y-5.5935
X5.7463Y-5.7336
X5.75Y-4.8458
X5.7502Y-5.3358
X5.76Y-3.5869
X5.8037Y-3.72
X5.8042Y-3.03
X5.8084Y-4.35
X5.8084Y-4.14
X5.8097Y-4.56
X5.8112Y-3.3
X5.8138Y-3.93
X5.8531Y-5.2939
T2
X2.6075Y-3.5825
X2.6075Y-3.8575
X2.6075Y-5.1925
X2.6075Y-5.4675
T3
X3.095Y-5.505
X3.295Y-5.33
X3.395Y-5.505
X3.49Y-3.68
X3.515Y-5.505
X3.595Y-5.33
X3.715Y-5.33
X3.79Y-3.68
X3.815Y-5.505
X3.92Y-3.68
X4.015Y-5.33
X4.22Y-3.68
T4
X2.83Y-3.04
X2.83Y-3.14
X2.83Y-3.24
X2.83Y-3.34
X2.83Y-3.72
X2.83Y-3.82
X2.83Y-4.89
X2.83Y-4.99
X2.83Y-5.33
X2.83Y-5.43
X3.32Y-2.72
X3.42Y-2.72
X3.52Y-2.72
X3.62Y-2.72
X3.72Y-2.72
X3.82Y-2.72
X3.92Y-2.72
X3.99Y-6.1
X4.02Y-2.72
X4.09Y-6.1
X4.12Y-2.72
X4.22Y-2.72
X4.48Y-6.1
X4.58Y-6.1
X4.68Y-6.1
X4.78Y-6.1
X4.8Y-2.73
X4.9Y-2.73
X5.0Y-2.73
X5.1Y-2.73
X5.13Y-6.1
X5.23Y-6.1
X5.33Y-6.1
X5.43Y-6.1
T5
X2.92Y-2.71
X2.92Y-6.15
X5.79Y-2.72
X5.79Y-6.15
T0
M30
